<?xml version="1.0" encoding="iso-8859-1"?>
<!-- Generator: Adobe Illustrator 17.1.0, SVG Export Plug-In . SVG Version: 6.00 Build 0)  -->
<!DOCTYPE svg PUBLIC "-//W3C//DTD SVG 1.1//EN" "http://www.w3.org/Graphics/SVG/1.1/DTD/svg11.dtd">
<svg version="1.1" id="Capa_1" xmlns="http://www.w3.org/2000/svg" xmlns:xlink="http://www.w3.org/1999/xlink" x="0px" y="0px"
	 viewBox="0 0 217.896 217.896" style="enable-background:new 0 0 217.896 217.896;" xml:space="preserve">
<path d="M29.328,112.968c16.813,16.979,46.573,27.4,78.84,27.4c0.17,0,0.339-0.003,0.508-0.007l0.251-0.005l0.294,0.005
	c0.17,0.004,0.339,0.007,0.51,0.007c32.266,0,62.025-10.422,78.839-27.4l26.617,19.934c2.559,1.917,3.432,5.362,2.075,8.192
	c-13.715,28.616-57.934,48.602-107.531,48.602l-0.796-0.006l-0.767,0.006c-49.599,0-93.817-19.986-107.532-48.602
	c-1.356-2.83-0.483-6.275,2.074-8.192L29.328,112.968z M108.167,132.368l0.759-0.012l0.804,0.012
	c31.19,0,59.62-10.154,74.595-26.557v-2.234c0-41.629-33.747-75.376-75.376-75.376h0c-41.629,0-75.376,33.747-75.376,75.376v2.234
	C48.546,122.214,76.976,132.368,108.167,132.368z"/>
<g>
</g>
<g>
</g>
<g>
</g>
<g>
</g>
<g>
</g>
<g>
</g>
<g>
</g>
<g>
</g>
<g>
</g>
<g>
</g>
<g>
</g>
<g>
</g>
<g>
</g>
<g>
</g>
<g>
</g>
</svg>
