<?xml version="1.0" encoding="iso-8859-1"?>
<!-- Generator: Adobe Illustrator 17.1.0, SVG Export Plug-In . SVG Version: 6.00 Build 0)  -->
<!DOCTYPE svg PUBLIC "-//W3C//DTD SVG 1.1//EN" "http://www.w3.org/Graphics/SVG/1.1/DTD/svg11.dtd">
<svg version="1.1" id="Capa_1" xmlns="http://www.w3.org/2000/svg" xmlns:xlink="http://www.w3.org/1999/xlink" x="0px" y="0px"
	 viewBox="0 0 204.323 204.323" style="enable-background:new 0 0 204.323 204.323;" xml:space="preserve">
<path d="M103.122,165.382c-0.574,0-0.914-0.005-1.008-0.006c-0.113,0.013-20.653,0.011-52.747-4.545
	c-34.326-4.874-47.922-18.094-48.484-18.654c-0.82-0.817-1.096-2.034-0.71-3.126c0.252-0.71,6.271-17.508,15.721-26.957
	c8.007-8.008,23.873-13.774,29.178-15.548l7.354-39.444c0.111-0.596,0.399-1.144,0.828-1.571c0.47-0.47,3.474-3.126,16.549-9.319
	c13.665-6.473,31.489-7.239,32.241-7.27c0.078-0.002,0.157-0.002,0.235,0c0.752,0.03,18.577,0.797,32.242,7.27
	c13.076,6.193,16.08,8.85,16.55,9.319c0.428,0.428,0.717,0.976,0.828,1.571l4.632,24.846l4.499,15.209
	c6.464,2.275,20.153,7.688,27.401,14.938c9.45,9.449,15.469,26.247,15.721,26.957c0.39,1.104,0.104,2.332-0.733,3.149
	c-0.562,0.548-14.143,13.476-48.437,18.627C126.534,165.099,107.621,165.382,103.122,165.382z M102.152,159.376
	c0.255,0.002,20.397,0.255,51.937-4.482c26.07-3.916,39.46-12.574,43.662-15.776c-1.819-4.555-6.839-16.056-13.564-22.781
	c-6.674-6.674-20.415-11.883-25.996-13.809l-1.138-0.088c0.748,0.523,1.513,1.081,2.293,1.675c12.343,9.404,17,26.631,17.192,27.36
	c0.281,1.063-0.044,2.196-0.846,2.95l-12.407,11.666c-0.813,0.764-1.981,1.015-3.036,0.649c-1.054-0.364-1.819-1.283-1.986-2.386
	c-0.896-5.914-4.23-22.546-8.836-28.408c-4.23-5.384-10.775-9.549-13.819-11.313c-2.057,1.371-4.53,2.161-7.198,2.117
	c-0.691,2.42-1.586,7.569,0.018,15.247c2.454,11.742,9.348,22.793,9.417,22.903c0.529,0.842,0.607,1.892,0.208,2.803
	c-0.399,0.91-1.224,1.564-2.202,1.745l-27.035,4.999c-0.894,0.163-1.818-0.086-2.508-0.681c-0.689-0.597-1.07-1.474-1.036-2.384
	c0.031-0.805,0.788-19.881,3.96-33.88c1.796-7.925,4.276-13.074,6.249-16.196c-4.115,1.076-10.94,2.506-21.248,3.672
	c-3.332,0.572-6.432,0.938-9.218,1.085c-20.69,1.089-33.699-2.754-37.394-4.038c-4.056,1.333-20.114,6.936-27.489,14.311
	c-6.75,6.75-11.766,18.267-13.574,22.803c4.151,3.228,17.528,12.043,43.648,15.751C81.869,159.385,101.948,159.395,102.152,159.376z
	 M120.851,104.092c-1.633,2.48-4.039,7.121-5.765,14.737c-2.234,9.856-3.238,22.751-3.619,29.026l19.135-3.538
	c-2.431-4.52-6.259-12.541-8.046-21.094c-1.798-8.604-0.872-14.681,0.053-17.984C121.99,104.905,121.402,104.521,120.851,104.092z
	 M141.626,101.287c3.73,2.425,8.811,6.232,12.521,10.953c4.579,5.828,7.612,18.392,9.063,25.688l7.014-6.595
	c-1.425-4.303-5.892-15.878-14.512-22.445C149.563,104.204,144.658,102.169,141.626,101.287z M123.124,97.868
	c1.201,1.741,3.21,2.885,5.481,2.885c1.747,0,3.339-0.677,4.527-1.781c0.059-0.063,0.121-0.122,0.184-0.178
	c1.2-1.204,1.943-2.864,1.943-4.694c0-3.669-2.985-6.654-6.654-6.654c-3.601,0-6.542,2.875-6.651,6.45l0.356,2.361
	c0.195,0.568,0.465,1.102,0.798,1.588C123.114,97.852,123.119,97.86,123.124,97.868z M51.12,96.84
	c4.669,1.397,16.333,4.149,33.582,3.231c2.571-0.136,5.461-0.479,8.59-1.019c0.061-0.011,0.123-0.02,0.185-0.027l0,0
	c9.922-1.118,16.451-2.483,20.296-3.478c-6.072-2.394-18.836-7.029-30.664-8.786c-11.215-1.666-24.13-2.595-29.562-2.938
	L51.12,96.84z M142.467,95.299l10.601,0.816l-1.604-8.606l-9.362,5.803l0.026,1.901C142.239,95.241,142.352,95.269,142.467,95.299z
	 M54.654,77.883c5.894,0.384,18.391,1.318,29.336,2.943c12.799,1.902,26.529,6.969,32.575,9.375
	c1.647-5.076,6.421-8.757,12.04-8.757c4.691,0,8.794,2.565,10.979,6.368l10.699-6.632l-4.079-21.877
	c-1.331-0.939-5.112-3.341-14.253-7.671c-12.019-5.692-28.243-6.614-29.79-6.69c-1.545,0.077-17.799,1.011-29.792,6.69
	c-9.083,4.303-12.874,6.701-14.254,7.679L54.654,77.883z"/>
<g>
</g>
<g>
</g>
<g>
</g>
<g>
</g>
<g>
</g>
<g>
</g>
<g>
</g>
<g>
</g>
<g>
</g>
<g>
</g>
<g>
</g>
<g>
</g>
<g>
</g>
<g>
</g>
<g>
</g>
</svg>
