<?xml version="1.0" encoding="iso-8859-1"?>
<!-- Generator: Adobe Illustrator 19.0.0, SVG Export Plug-In . SVG Version: 6.00 Build 0)  -->
<svg version="1.1" id="Capa_1" xmlns="http://www.w3.org/2000/svg" xmlns:xlink="http://www.w3.org/1999/xlink" x="0px" y="0px"
	 viewBox="0 0 512 512" style="enable-background:new 0 0 512 512;" xml:space="preserve">
<path style="fill:#FEDB41;" d="M512,285.99c0,68.099-132.4,105-256,105c-40.499,0-80.4-3.9-115.8-10.8l-69.6-20.7
	C13.001,335.191,0,306.09,0,285.99c0-35.101,36.7-65.101,101.8-84.6h308.4C475.3,220.889,512,250.889,512,285.99z"/>
<path style="fill:#FFCC33;" d="M512,285.99c0,68.099-132.4,105-256,105v-189.6h154.2C475.3,220.889,512,250.889,512,285.99z"/>
<path style="fill:#FD003A;" d="M207.309,269.028l-67.148-8.408l-74.766,74.766C62.582,338.197,61,342.006,61,345.99v120
	c0,13.302,16.145,20.034,25.605,10.605L106,457.201l19.395,19.395C134.799,486.001,151,479.4,151,465.99v-85.459l60.469-90.703
	C216.068,282.929,214.208,273.627,207.309,269.028z"/>
<path style="fill:#E50027;" d="M421,205.591v50.4c0,6-3.6,11.4-9,13.799c-2.701,1.201-70.8,31.201-156,31.201s-153.3-30-156-31.201
	c-5.4-2.399-9-7.798-9-13.799v-50.4l21-23.401h288L421,205.591z"/>
<path style="fill:#C1001F;" d="M421,205.591v50.4c0,6-3.6,11.4-9,13.799c-2.701,1.201-70.8,31.201-156,31.201V182.19h144
	L421,205.591z"/>
<path style="fill:#FEA832;" d="M421,195.99v9.6c-52.5,23.699-112.2,35.4-165,35.4c-52.5,0-112.2-11.7-165-35.4v-9.6
	c0-88.801,72.299-165,165-165C348.401,30.99,421,106.889,421,195.99z"/>
<path style="fill:#FE9923;" d="M421,195.99v9.6c-52.5,23.699-112.2,35.4-165,35.4v-210C348.401,30.99,421,106.889,421,195.99z"/>
<g>
</g>
<g>
</g>
<g>
</g>
<g>
</g>
<g>
</g>
<g>
</g>
<g>
</g>
<g>
</g>
<g>
</g>
<g>
</g>
<g>
</g>
<g>
</g>
<g>
</g>
<g>
</g>
<g>
</g>
</svg>
