<?xml version="1.0" encoding="iso-8859-1"?>
<!-- Generator: Adobe Illustrator 19.0.0, SVG Export Plug-In . SVG Version: 6.00 Build 0)  -->
<svg version="1.1" id="Layer_1" xmlns="http://www.w3.org/2000/svg" xmlns:xlink="http://www.w3.org/1999/xlink" x="0px" y="0px"
	 viewBox="0 0 421.621 421.621" style="enable-background:new 0 0 421.621 421.621;" xml:space="preserve">
<g>
	<path style="fill:#4BB4E2;" d="M0,196.634v128.131h296.649V149.856c0-29.268-23.733-53.001-53.001-53.001H99.779
		C44.668,96.855,0,141.523,0,196.634z"/>
	<path style="fill:#57C3FF;" d="M25.325,196.634v128.131h296.649v-30.751h-42.208V149.856c0-29.268-112.9-53.001-142.168-53.001
		h-12.494c-5.101,0-10.118,0.386-15.014,1.121C62.106,105.212,25.325,146.624,25.325,196.634z"/>
	<path style="fill:#57C3FF;" d="M86.828,294.014v30.751h319.417c8.502,0,15.376-6.886,15.376-15.376
		c0-4.245-1.725-8.092-4.498-10.878c-2.785-2.773-6.633-4.498-10.877-4.498L86.828,294.014L86.828,294.014z"/>
	<path style="fill:#FFDE55;" d="M86.828,147.625v146.389h209.821V149.856c0-29.268-23.733-53.001-53.001-53.001h-106.05
		c-3.642,0-7.199,0.386-10.624,1.121C104.036,102.848,86.828,123.229,86.828,147.625z"/>
	<path style="fill:#4BB4E2;" d="M0,309.389v15.376h406.244c8.502,0,15.376-6.886,15.376-15.376H0z"/>
	<polygon style="fill:#F75959;" points="211.525,146.909 195.758,178.856 160.502,183.979 186.014,208.847 179.991,243.96 
		211.525,227.382 243.059,243.96 237.037,208.847 262.548,183.979 227.292,178.856 	"/>
</g>
<g>
</g>
<g>
</g>
<g>
</g>
<g>
</g>
<g>
</g>
<g>
</g>
<g>
</g>
<g>
</g>
<g>
</g>
<g>
</g>
<g>
</g>
<g>
</g>
<g>
</g>
<g>
</g>
<g>
</g>
</svg>
