<svg xmlns="http://www.w3.org/2000/svg" xmlns:xlink="http://www.w3.org/1999/xlink" xmlns:fi="http://pattern.flaticon.com/" x="0" y="0" width="1536" height="768" viewBox="0 0 2150.4 1075.2"><rect x="0px" y="0px" width="100%" height="100%" opacity="1" fill="#ffffff"/><defs><g transform="matrix(0.12765957415103912 0 0 0.12765957415103912 150 341)" id="L1_4"><path d="M447.5,79.175c-4.136,0-7.5,3.364-7.5,7.5v214.5c0,4.14-3.354,7.497-7.495,7.5v15   c4.14,0.003,7.495,3.36,7.495,7.5v30c0,4.136,3.364,7.5,7.5,7.5s7.5-3.364,7.5-7.5v-274.5C455,82.539,451.635,79.175,447.5,79.175z   " fill="#ff6e1d"/><path d="M176.473,368.305l86.537,21.312c2.896,0.713,5.855,1.114,8.799,1.193   c7.747,0.212,15.452-1.837,22.196-5.916c9.362-5.663,15.959-14.632,18.576-25.257l4.705-19.105l-14.565-3.586l-4.705,19.104   c-1.657,6.732-5.839,12.417-11.773,16.007c-4.105,2.483-8.711,3.757-13.39,3.758c-2.083,0-4.18-0.252-6.255-0.763L180.06,353.74   c-6.735-1.659-12.42-5.84-16.008-11.774c-2.883-4.768-4.146-10.204-3.651-15.719c0.371-4.125,4.014-7.167,8.141-6.8   c0.31,0.028,0.612,0.08,0.909,0.144l3.591-14.572l-21.845-5.378l-4.702,19.094c-2.617,10.624-0.939,21.632,4.723,30.996   C156.878,359.092,165.848,365.689,176.473,368.305z" fill="#f2ebd9"/><path d="M37.5,241.425c-4.142,0-7.5-3.358-7.5-7.5v-50c0-4.136-3.364-7.5-7.5-7.5   c-4.135,0-7.5,3.364-7.5,7.5v80c0,4.136,3.365,7.5,7.5,7.5c4.136,0,7.5-3.364,7.5-7.5c0-2.305,1.06-4.481,2.874-5.903   c1.335-1.046,2.969-1.593,4.631-1.592C37.505,256.429,37.505,241.425,37.5,241.425z" fill="#f2ebd9"/><path d="M432.5,308.675c-4.143,0-7.5-3.358-7.5-7.5V96.245L45,189.802v44.123c0,4.141-3.355,7.497-7.495,7.5   v15.005c0.597,0,1.197,0.067,1.788,0.212l259.729,63.946c0.008,0.002,29.13,7.172,29.13,7.172   c0.007,0.001,96.847,23.844,96.847,23.844v-20.429c0-4.142,3.357-7.5,7.5-7.5C432.505,323.675,432.505,308.675,432.5,308.675z    M307.084,166.471L79.293,222.553c-0.602,0.148-1.206,0.219-1.799,0.219c-3.371,0-6.435-2.289-7.277-5.709   c-0.99-4.022,1.468-8.085,5.49-9.076l227.792-56.083c4.018-0.987,8.085,1.468,9.075,5.49S311.107,165.481,307.084,166.471z    M394.292,145l-58.078,14.299c-0.602,0.148-1.205,0.219-1.799,0.219c-3.371,0-6.435-2.289-7.276-5.709   c-0.99-4.022,1.467-8.085,5.489-9.076l58.078-14.299c4.017-0.987,8.085,1.468,9.075,5.49S398.315,144.01,394.292,145z" fill="#ffcc75"/><path d="M303.499,151.906L75.707,207.988c-4.022,0.99-6.48,5.054-5.49,9.076   c0.842,3.42,3.906,5.709,7.277,5.709c0.593,0,1.197-0.071,1.799-0.219l227.792-56.083c4.022-0.99,6.479-5.054,5.489-9.076   S307.516,150.919,303.499,151.906z" fill="#ffffff"/><path d="M390.707,130.435l-58.078,14.299c-4.022,0.99-6.479,5.054-5.489,9.076   c0.842,3.42,3.905,5.709,7.276,5.709c0.594,0,1.197-0.071,1.799-0.219L394.292,145c4.022-0.99,6.479-5.054,5.489-9.076   S394.723,129.448,390.707,130.435z" fill="#ffffff"/><path d="M447.5,64.175c-10.297,0-18.995,6.956-21.657,16.415L43.078,174.827   c-3.5-7.888-11.407-13.403-20.578-13.403c-12.407,0-22.5,10.093-22.5,22.5v80c0,12.407,10.093,22.5,22.5,22.5   c9.171,0,17.078-5.515,20.578-13.403l93.552,23.033l-4.702,19.092c-3.575,14.515-1.284,29.553,6.453,42.345   c7.736,12.791,19.99,21.804,34.505,25.378l86.537,21.312c3.937,0.97,7.969,1.516,11.984,1.624c0.494,0.013,0.987,0.02,1.48,0.02   c10.145,0,20.1-2.786,28.879-8.096c12.791-7.735,21.805-19.99,25.379-34.505l4.706-19.106l93.992,23.141   c2.662,9.459,11.359,16.415,21.657,16.415c12.406,0,22.5-10.093,22.5-22.5v-274.5C470,74.268,459.906,64.175,447.5,64.175z    M455,361.175c0,4.136-3.364,7.5-7.5,7.5s-7.5-3.364-7.5-7.5v-30c0-4.14-3.354-7.497-7.495-7.5c-4.148,0-7.505,3.358-7.505,7.5   v20.429l-96.84-23.842c-0.007-0.001-29.13-7.172-29.13-7.172c-0.008-0.002-259.737-63.948-259.737-63.948   c-0.592-0.146-1.192-0.212-1.788-0.212c-1.662-0.001-3.296,0.546-4.631,1.592C31.06,259.443,30,261.62,30,263.925   c0,4.136-3.364,7.5-7.5,7.5c-4.135,0-7.5-3.364-7.5-7.5v-80c0-4.136,3.365-7.5,7.5-7.5c4.136,0,7.5,3.364,7.5,7.5v50   c0,4.142,3.358,7.5,7.5,7.5c4.145-0.003,7.5-3.359,7.5-7.5v-44.123l380-93.557v204.929c0,4.142,3.357,7.5,7.5,7.5   c4.146-0.003,7.5-3.36,7.5-7.5v-214.5c0-4.136,3.364-7.5,7.5-7.5s7.5,3.364,7.5,7.5V361.175z M146.493,318.734l4.702-19.094   l21.845,5.378l115.116,28.342l-4.705,19.104c-0.7,2.842-2.466,5.242-4.973,6.759c-2.505,1.515-5.45,1.963-8.294,1.264   l-86.537-21.312c-2.844-0.701-5.245-2.466-6.76-4.972c-1.219-2.016-1.753-4.304-1.546-6.616c0.342-3.815-2.238-7.213-5.891-7.997   c-0.297-0.063-0.599-0.116-0.909-0.144c-4.127-0.367-7.77,2.674-8.141,6.8c-0.495,5.516,0.768,10.951,3.651,15.719   c3.588,5.934,9.273,10.115,16.008,11.774l86.538,21.313c2.075,0.511,4.172,0.763,6.255,0.763c4.679,0,9.284-1.274,13.39-3.758   c5.935-3.59,10.116-9.275,11.773-16.007l4.705-19.104l14.565,3.586l-4.705,19.105c-2.617,10.625-9.214,19.594-18.576,25.257   c-6.744,4.079-14.449,6.128-22.196,5.916c-2.943-0.079-5.903-0.48-8.799-1.193l-86.537-21.312   c-10.625-2.617-19.594-9.213-25.257-18.576C145.553,340.366,143.876,329.358,146.493,318.734z" fill="#082947"/></g><g transform="matrix(0.12789331376552582 0 0 0.12789331376552582 -27.99999925062508 266)" id="L1_5"><path d="M166.461,420.422l58.953-84.189l-19.435-27.754c-0.025-0.035-0.055-0.064-0.079-0.1   c-0.059-0.085-0.112-0.173-0.171-0.258l-5.401-7.714c-15.693,14.371-39.995,16.57-59.335,4.157   c-16.845-10.811-37.22-14.071-57.373-9.173c-21.669,5.264-40.505,19.382-51.678,38.733c-10.685,18.507-13.523,40.066-7.993,60.708   s18.769,37.894,37.276,48.578C97.229,464.197,142.471,454.315,166.461,420.422z M100.569,439.984   c-11.352-0.001-22.571-3.016-32.448-8.718c-15.035-8.681-25.79-22.696-30.284-39.467c-4.493-16.77-2.187-34.285,6.494-49.32   c11.577-20.052,33.166-32.508,56.342-32.508c11.348,0,22.567,3.015,32.445,8.718c15.035,8.681,25.79,22.696,30.284,39.467   c4.493,16.77,2.188,34.285-6.493,49.32C145.331,427.528,123.743,439.984,100.569,439.984z" fill="#ff6e1d"/><path d="M385.523,295.391c-20.152-4.896-40.528-1.638-57.374,9.173   c-22.352,14.349-51.342,9.191-65.996-11.738l-11.203-16c-6.327-9.029-18.82-11.229-27.851-4.906   c-8.991,6.296-11.209,18.702-4.993,27.725l84.596,120.81c23.968,33.862,69.21,43.746,105.215,22.958   c18.507-10.685,31.745-27.937,37.276-48.578s2.692-42.202-7.993-60.709C426.027,314.773,407.192,300.655,385.523,295.391z    M239.88,293.592c-0.308,0.31-0.641,0.6-1.01,0.859c-1.784,1.247-3.924,1.603-5.898,1.172c-1.777-0.388-3.42-1.41-4.546-3.018   c-2.376-3.394-1.551-8.069,1.842-10.445c0.555-0.389,1.147-0.684,1.755-0.903c1.632-0.592,3.395-0.586,4.993-0.035   c1.445,0.497,2.754,1.432,3.698,2.78C242.832,287.026,242.401,291.066,239.88,293.592z M431.304,391.8   c-4.494,16.771-15.249,30.786-30.284,39.467c-9.878,5.703-21.097,8.718-32.445,8.718c-23.176,0-44.766-12.456-56.342-32.508   c-8.681-15.035-10.986-32.551-6.493-49.32c4.494-16.771,15.249-30.786,30.284-39.467c9.878-5.703,21.097-8.718,32.445-8.718   c23.176,0,44.765,12.456,56.342,32.508C433.491,357.514,435.797,375.03,431.304,391.8z" fill="#f2484b"/><path d="M243.726,240.358l19.506,27.858c0.013,0.018,4.905,7.005,4.905,7.005L404.983,79.799   c7.277-10.394,10.072-22.998,7.869-35.493c-1.763-9.998-6.556-18.967-13.726-25.881L243.726,240.358z" fill="#98d9d5"/><path d="M105.969,69.771L70.016,18.426c-7.169,6.914-11.962,15.883-13.726,25.88   c-2.203,12.495,0.591,25.1,7.869,35.493L201.73,276.26c2.373-6.501,6.679-12.365,12.765-16.627   c6.089-4.263,13.075-6.304,19.998-6.309L123.176,94.346c-2.376-3.393-1.551-8.069,1.842-10.445l-8.604-12.287   C113.023,73.99,108.345,73.165,105.969,69.771z" fill="#ffffff"/><path d="M163.401,358.156c-4.494-16.771-15.249-30.786-30.284-39.467   c-9.878-5.703-21.097-8.718-32.445-8.718c-23.176,0-44.765,12.456-56.342,32.508c-8.681,15.035-10.987,32.551-6.494,49.32   c4.494,16.771,15.249,30.786,30.284,39.467c9.877,5.702,21.096,8.717,32.444,8.718c23.178,0,44.766-12.456,56.343-32.508   C165.589,392.441,167.894,374.926,163.401,358.156z M75.621,418.276c-11.565-6.678-19.838-17.459-23.294-30.358   c-3.457-12.899-1.683-26.373,4.995-37.938c8.906-15.425,25.517-25.008,43.352-25.008c8.718,0,17.344,2.319,24.945,6.708   c11.565,6.677,19.838,17.459,23.295,30.358c3.456,12.899,1.683,26.373-4.995,37.938c-8.907,15.426-25.518,25.009-43.352,25.008   C91.847,424.983,83.221,422.664,75.621,418.276z" fill="#082947"/><path d="M368.469,309.971c-11.348,0-22.567,3.015-32.445,8.718c-15.035,8.681-25.79,22.696-30.284,39.467   c-4.493,16.77-2.188,34.285,6.493,49.32c11.577,20.052,33.166,32.508,56.342,32.508c11.348,0,22.567-3.015,32.445-8.718   c15.035-8.681,25.79-22.696,30.284-39.467c4.493-16.77,2.187-34.285-6.494-49.32C413.234,322.428,391.645,309.971,368.469,309.971z    M416.815,387.918c-3.456,12.899-11.729,23.681-23.294,30.358c-7.601,4.388-16.227,6.708-24.945,6.708   c-17.834,0-34.446-9.583-43.352-25.008c-6.677-11.565-8.451-25.039-4.995-37.938c3.457-12.899,11.729-23.682,23.295-30.358   c7.601-4.389,16.227-6.708,24.945-6.708c17.834,0,34.446,9.583,43.352,25.008C418.497,361.545,420.271,375.018,416.815,387.918z" fill="#082947"/><path d="M450.19,326.625c-13.212-22.886-35.493-39.582-61.126-45.81   c-24.177-5.873-48.687-1.922-69.017,11.126c-14.091,9.042-31.856,7.11-42.525-3.972L417.27,88.402   c9.576-13.675,13.252-30.261,10.354-46.701c-2.899-16.441-12.027-30.77-25.702-40.345c-1.629-1.141-3.646-1.588-5.604-1.242   c-1.959,0.345-3.701,1.454-4.841,3.084L234.57,227.283L135.463,85.742c-2.375-3.393-7.052-4.218-10.445-1.842   c-3.393,2.376-4.218,7.053-1.842,10.445l111.317,158.979c-6.923,0.005-13.909,2.046-19.998,6.309   c-6.086,4.262-10.392,10.126-12.765,16.627L64.159,79.799c-7.277-10.394-10.072-22.998-7.869-35.493   c1.763-9.997,6.556-18.966,13.726-25.88l35.953,51.346c2.376,3.394,7.054,4.219,10.445,1.842c3.393-2.376,4.218-7.053,1.842-10.445   L77.665,3.199c-2.376-3.394-7.052-4.217-10.445-1.842c-13.675,9.575-22.803,23.903-25.702,40.344s0.778,33.026,10.354,46.701   L191.619,287.97c-10.668,11.083-28.433,13.014-42.524,3.972c-20.33-13.049-44.84-16.999-69.015-11.126   c-25.635,6.227-47.915,22.924-61.128,45.81c-12.688,21.977-16.059,47.579-9.491,72.09c6.568,24.512,22.288,44.999,44.265,57.687   c14.571,8.413,30.902,12.74,47.427,12.739c6.877,0,13.79-0.749,20.621-2.266c23.095-5.127,43.313-18.547,56.954-37.818   l55.844-79.749l55.867,79.781c13.618,19.24,33.837,32.66,56.932,37.787c6.833,1.517,13.742,2.267,20.622,2.266   c16.523,0,32.856-4.327,47.427-12.739c21.977-12.688,37.697-33.175,44.265-57.687S462.879,348.601,450.19,326.625z    M445.193,394.834c-5.531,20.642-18.769,37.894-37.276,48.578c-36.005,20.788-81.247,10.904-105.215-22.958l-84.596-120.81   c-6.215-9.022-3.997-21.429,4.993-27.725c9.03-6.323,21.523-4.123,27.851,4.906l11.203,16   c14.654,20.93,43.645,26.087,65.996,11.738c16.846-10.811,37.222-14.068,57.374-9.173c21.669,5.264,40.504,19.382,51.677,38.733   C447.885,352.632,450.724,374.192,445.193,394.834z M61.225,443.411c-18.507-10.685-31.745-27.937-37.276-48.578   s-2.692-42.201,7.993-60.708c11.173-19.352,30.009-33.47,51.678-38.733c20.153-4.898,40.528-1.638,57.373,9.173   c19.341,12.413,43.643,10.214,59.335-4.157l5.401,7.714c0.059,0.085,0.111,0.173,0.171,0.258c0.025,0.035,0.054,0.064,0.079,0.1   l19.435,27.754l-58.953,84.189C142.471,454.315,97.229,464.197,61.225,443.411z M404.983,79.799L268.137,275.221l-4.892-6.987   c-0.013-0.018-19.519-27.876-19.519-27.876l155.4-221.934c7.169,6.914,11.962,15.883,13.726,25.881   C415.055,56.801,412.26,69.405,404.983,79.799z" fill="#082947"/><path d="M237.016,281.221c-1.598-0.551-3.36-0.556-4.993,0.035c-0.608,0.22-1.2,0.515-1.755,0.903   c-3.393,2.376-4.218,7.052-1.842,10.445c1.125,1.607,2.769,2.63,4.546,3.018c1.974,0.431,4.114,0.074,5.9-1.176   c0.369-0.258,0.701-0.548,1.008-0.855c2.521-2.525,2.952-6.565,0.834-9.59C239.771,282.653,238.461,281.719,237.016,281.221z" fill="#082947"/></g><g transform="matrix(0.12751199305057526 0 0 0.12751199305057526 161 184)" id="L1_6"><path d="M425.929,26.935c-0.019,0.02-8.849,8.849-8.849,8.849l17.678,17.678l8.83-8.83   c0.019-0.02,8.848-8.848,8.848-8.848l-17.678-17.678L425.929,26.935z" fill="#ff6e1d"/><path d="M420.732,60.649 409.893,49.81 383.874,74.702 395.84,86.668z" fill="#f2484b"/><path d="M275.87,212.07l47.933-50.103c0.033-0.035,61.666-64.458,61.666-64.458l-12.436-12.436   l-64.429,61.639c-0.022,0.021-116.406,111.363-116.406,111.363l20.269,20.269l42.666-44.597c2.862-2.994,7.609-3.099,10.602-0.235   l10.37-10.839C273.111,219.81,273.006,215.063,275.87,212.07z" fill="#274b6d"/><path d="M327.986,179.292l-41.278,43.147c-1.473,1.54-3.445,2.315-5.42,2.315   c-1.864,0-3.73-0.69-5.184-2.081l-10.371,10.839c2.995,2.864,3.1,7.611,0.236,10.604l-47.966,50.138   c-1.395,1.458-3.318,2.293-5.336,2.315h-0.083c-1.988,0-3.896-0.789-5.304-2.196l-31.113-31.113   c-1.427-1.428-2.218-3.369-2.196-5.387c0.022-2.018,0.857-3.941,2.315-5.336l114.962-109.982   c-31.455-17.455-71.187-15.547-100.808,5.276c3.354,28.581-6.539,57.353-26.953,77.767c-13.751,13.751-31.108,22.8-50.196,26.169   c-17.215,3.037-34.713,1.298-50.869-5.028c-4.832,3.528-9.413,7.451-13.657,11.695C8.422,298.778,4.227,361.783,36.168,406.847   l56.593-70.72c1.332-1.666,3.312-2.686,5.441-2.803c2.136-0.114,4.209,0.677,5.718,2.185l31.112,31.112   c1.508,1.509,2.303,3.588,2.185,5.718c-0.117,2.13-1.137,4.109-2.803,5.441l-70.72,56.593   c45.063,31.942,108.068,27.749,148.412-12.598c4.246-4.246,8.169-8.827,11.696-13.657c-6.325-16.155-8.066-33.65-5.027-50.869   c3.368-19.087,12.417-36.445,26.168-50.196c20.414-20.414,49.178-30.305,77.767-26.952   C343.534,250.48,345.442,210.748,327.986,179.292z M105.581,299.604c-3.744,1.797-7.108,2.498-10.079,2.498   c-6.523,0-11.15-3.38-13.732-5.962c-2.929-2.929-2.929-7.678,0.001-10.606c2.929-2.929,7.678-2.928,10.606,0.001   c1.491,1.491,2.844,2.403,6.714,0.546c4.409-2.116,9.688-6.853,14.793-11.432c5.89-5.284,11.979-10.747,18.32-13.791   c11.966-5.742,20.054-0.294,23.813,3.463c2.929,2.93,2.929,7.678,0,10.607c-2.93,2.928-7.678,2.928-10.607,0   c-1.491-1.492-2.845-2.405-6.715-0.547c-4.409,2.116-9.688,6.853-14.794,11.433C118.012,291.097,111.922,296.561,105.581,299.604z    M134.74,304.689c-2.929-2.93-2.929-7.678,0-10.607c2.93-2.928,7.678-2.928,10.607,0l31.112,31.112   c2.929,2.93,2.929,7.678,0,10.607c-1.465,1.464-3.385,2.196-5.304,2.196s-3.839-0.732-5.304-2.196L134.74,304.689z    M209.684,338.337c-3.044,6.341-8.507,12.431-13.791,18.32c-4.579,5.104-9.315,10.384-11.432,14.793   c-1.856,3.869-0.944,5.223,0.546,6.714c2.93,2.929,2.93,7.678,0.001,10.606c-1.465,1.465-3.385,2.197-5.304,2.197   s-3.839-0.732-5.303-2.196c-3.759-3.758-9.205-11.848-3.464-23.812c3.043-6.341,8.507-12.431,13.79-18.319   c4.58-5.105,9.316-10.385,11.433-14.794c1.856-3.869,0.944-5.224-0.547-6.715c-2.929-2.93-2.929-7.678,0-10.607   c2.93-2.928,7.678-2.928,10.607,0C209.979,318.283,215.425,326.374,209.684,338.337z" fill="#ff6e1d"/><path d="M51.795,424.686l66.707-53.381l-19.264-19.264l-53.381,66.707c0.951,1.021,1.915,2.034,2.91,3.029   S50.773,423.735,51.795,424.686z" fill="#274b6d"/><path d="M145.409,274.928c2.93,2.928,7.678,2.928,10.607,0c2.929-2.93,2.929-7.678,0-10.607   c-3.759-3.757-11.847-9.205-23.813-3.463c-6.341,3.044-12.431,8.507-18.32,13.791c-5.104,4.579-10.384,9.315-14.793,11.432   c-3.87,1.857-5.223,0.945-6.714-0.546c-2.929-2.929-7.678-2.93-10.606-0.001c-2.93,2.929-2.93,7.678-0.001,10.606   c2.582,2.582,7.209,5.962,13.732,5.962c2.971,0,6.335-0.701,10.079-2.498c6.341-3.043,12.431-8.507,18.319-13.79   c5.105-4.58,10.385-9.316,14.794-11.433C142.565,272.523,143.918,273.436,145.409,274.928z" fill="#082947"/><path d="M195.613,314.525c-2.929,2.93-2.929,7.678,0,10.607c1.491,1.491,2.403,2.846,0.547,6.715   c-2.116,4.409-6.853,9.688-11.433,14.794c-5.283,5.889-10.747,11.979-13.79,18.319c-5.741,11.964-0.295,20.054,3.464,23.812   c1.464,1.464,3.384,2.196,5.303,2.196s3.839-0.732,5.304-2.197c2.929-2.929,2.929-7.678-0.001-10.606   c-1.49-1.491-2.402-2.845-0.546-6.714c2.116-4.409,6.853-9.688,11.432-14.793c5.284-5.89,10.747-11.979,13.791-18.32   c5.741-11.964,0.295-20.055-3.463-23.813C203.291,311.597,198.543,311.597,195.613,314.525z" fill="#082947"/><path d="M176.46,335.801c2.929-2.93,2.929-7.678,0-10.607l-31.112-31.112c-2.93-2.928-7.678-2.928-10.607,0   c-2.929,2.93-2.929,7.678,0,10.607l31.112,31.112c1.465,1.464,3.385,2.196,5.304,2.196S174.995,337.265,176.46,335.801z" fill="#f2ebd9"/><path d="M468.346,30.48L440.062,2.196c-2.93-2.928-7.678-2.928-10.607,0l-8.838,8.838l-1.768-1.768   c-2.93-2.928-7.678-2.928-10.607,0c-2.929,2.93-2.929,7.678,0,10.607l1.768,1.768l-8.839,8.839c-2.266,2.267-2.771,5.621-1.53,8.38   l-11.92,11.404l-16.026-16.026c-2.929-2.93-7.678-2.929-10.606-0.001c-2.93,2.929-2.93,7.678-0.001,10.606l15.792,15.792   l-74.353,71.132c-18.062-11.117-38.737-16.7-60.203-16.172c-23.614,0.588-45.929,8.519-64.53,22.935   c-2.183,1.691-3.259,4.445-2.802,7.169c4.246,25.298-4.019,51.201-22.109,69.292c-23.046,23.048-58.549,29.629-88.341,16.379   c-2.367-1.054-5.112-0.81-7.257,0.645c-6.828,4.63-13.263,9.95-19.125,15.813c-48.091,48.092-50.719,124.681-7.904,175.9   c0.027,0.033,0.054,0.065,0.081,0.097c2.461,2.938,5.063,5.798,7.823,8.559c25.441,25.44,58.859,38.161,92.278,38.161   c33.418,0,66.836-12.721,92.277-38.161c5.865-5.865,11.185-12.3,15.813-19.125c1.454-2.146,1.698-4.889,0.645-7.257   c-13.25-29.792-6.668-65.294,16.38-88.341c18.089-18.09,43.993-26.355,69.29-22.108c2.726,0.455,5.479-0.62,7.17-2.802   c14.416-18.602,22.347-40.916,22.935-64.53c0.533-21.462-5.054-42.142-16.172-60.204l78.738-82.304l15.793,15.792   c1.464,1.464,3.384,2.196,5.303,2.196s3.839-0.732,5.304-2.197c2.929-2.929,2.929-7.678-0.001-10.606l-16.027-16.026l3.798-3.97   c0.977,0.439,2.025,0.667,3.076,0.667c1.919,0,3.839-0.732,5.304-2.196l8.839-8.839l1.768,1.768   c1.465,1.464,3.385,2.196,5.304,2.196s3.839-0.732,5.304-2.196c2.929-2.93,2.929-7.678,0-10.607l-1.768-1.768l8.838-8.838   C471.275,38.158,471.275,33.41,468.346,30.48z M443.607,44.612c-0.019,0.02-8.849,8.849-8.849,8.849L417.08,35.784l8.83-8.83   c0.019-0.02,8.848-8.848,8.848-8.848l17.678,17.678L443.607,44.612z M244.944,307.053c-13.751,13.751-22.8,31.109-26.168,50.196   c-3.039,17.219-1.298,34.714,5.027,50.869c-3.527,4.83-7.45,9.411-11.696,13.657c-40.344,40.347-103.349,44.54-148.412,12.598   l70.72-56.593c1.666-1.332,2.686-3.312,2.803-5.441c0.118-2.13-0.677-4.209-2.185-5.718l-31.112-31.112   c-1.509-1.508-3.582-2.299-5.718-2.185c-2.13,0.117-4.109,1.137-5.441,2.803l-56.593,70.72   C4.227,361.783,8.422,298.778,48.766,258.434c4.244-4.244,8.825-8.167,13.657-11.695c16.156,6.326,33.654,8.065,50.869,5.028   c19.088-3.369,36.445-12.418,50.196-26.169c20.414-20.414,30.308-49.186,26.953-77.767c29.621-20.823,69.353-22.731,100.808-5.276   L176.287,252.538c-1.458,1.395-2.293,3.318-2.315,5.336c-0.021,2.018,0.77,3.959,2.196,5.387l31.113,31.113   c1.408,1.407,3.315,2.196,5.304,2.196h0.083c2.018-0.022,3.941-0.857,5.336-2.315l47.966-50.138   c2.864-2.993,2.759-7.74-0.234-10.604c-2.995-2.864-7.742-2.759-10.604,0.234l-42.666,44.597l-20.269-20.269l116.384-111.343   c0.022-0.021,64.451-61.659,64.451-61.659l12.436,12.436l-61.632,64.423c-0.033,0.035-47.966,50.138-47.966,50.138   c-2.864,2.993-2.759,7.74,0.234,10.603c1.454,1.391,3.32,2.082,5.184,2.082c1.975,0,3.947-0.775,5.42-2.315l41.278-43.147   c17.456,31.456,15.548,71.188-5.276,100.809C294.121,276.749,265.358,286.639,244.944,307.053z M99.237,352.041l19.264,19.264   l-66.707,53.381c-1.021-0.951-2.034-1.915-3.029-2.91s-1.959-2.007-2.91-3.029L99.237,352.041z M409.893,49.81l10.839,10.839   L395.84,86.668l-11.966-11.966L409.893,49.81z" fill="#082947"/></g></defs><g fi:class="KUsePattern"><pattern id="pattern_L1_4" width="350" height="350" patternUnits="userSpaceOnUse"><use xlink:href="#L1_4" x="-350" y="-350"/><use xlink:href="#L1_4" x="0" y="-350"/><use xlink:href="#L1_4" x="350" y="-350"/><use xlink:href="#L1_4" x="-350" y="0"/><use xlink:href="#L1_4" x="0" y="0"/><use xlink:href="#L1_4" x="350" y="0"/><use xlink:href="#L1_4" x="-350" y="350"/><use xlink:href="#L1_4" x="0" y="350"/><use xlink:href="#L1_4" x="350" y="350"/></pattern><rect x="0" y="0" width="100%" height="100%" fill="url(#pattern_L1_4)"/></g><g fi:class="KUsePattern"><pattern id="pattern_L1_5" width="350" height="350" patternUnits="userSpaceOnUse"><use xlink:href="#L1_5" x="-350" y="-350"/><use xlink:href="#L1_5" x="0" y="-350"/><use xlink:href="#L1_5" x="350" y="-350"/><use xlink:href="#L1_5" x="-350" y="0"/><use xlink:href="#L1_5" x="0" y="0"/><use xlink:href="#L1_5" x="350" y="0"/><use xlink:href="#L1_5" x="-350" y="350"/><use xlink:href="#L1_5" x="0" y="350"/><use xlink:href="#L1_5" x="350" y="350"/></pattern><rect x="0" y="0" width="100%" height="100%" fill="url(#pattern_L1_5)"/></g><g fi:class="KUsePattern"><pattern id="pattern_L1_6" width="350" height="350" patternUnits="userSpaceOnUse"><use xlink:href="#L1_6" x="-350" y="-350"/><use xlink:href="#L1_6" x="0" y="-350"/><use xlink:href="#L1_6" x="350" y="-350"/><use xlink:href="#L1_6" x="-350" y="0"/><use xlink:href="#L1_6" x="0" y="0"/><use xlink:href="#L1_6" x="350" y="0"/><use xlink:href="#L1_6" x="-350" y="350"/><use xlink:href="#L1_6" x="0" y="350"/><use xlink:href="#L1_6" x="350" y="350"/></pattern><rect x="0" y="0" width="100%" height="100%" fill="url(#pattern_L1_6)"/></g></svg>