<svg xmlns="http://www.w3.org/2000/svg" width="1440" height="900"><path d="M720,490L725,406L670,474Z" fill="#444444" stroke="#444444" stroke-width="1.51"/><path d="M725,406L661,420L670,474Z" fill="#434343" stroke="#434343" stroke-width="1.51"/><path d="M725,406L656,341L661,420Z" fill="#424242" stroke="#424242" stroke-width="1.51"/><path d="M855,389L739,338L725,406Z" fill="#434343" stroke="#434343" stroke-width="1.51"/><path d="M739,338L656,341L725,406Z" fill="#414141" stroke="#414141" stroke-width="1.51"/><path d="M670,474L690,580L720,490Z" fill="#464646" stroke="#464646" stroke-width="1.51"/><path d="M661,420L572,413L670,474Z" fill="#424242" stroke="#424242" stroke-width="1.51"/><path d="M670,474L582,608L690,580Z" fill="#474747" stroke="#474747" stroke-width="1.51"/><path d="M656,341L572,413L661,420Z" fill="#414141" stroke="#414141" stroke-width="1.51"/><path d="M572,413L556,488L670,474Z" fill="#424242" stroke="#424242" stroke-width="1.51"/><path d="M862,496L855,389L725,406Z" fill="#464646" stroke="#464646" stroke-width="1.51"/><path d="M862,496L725,406L720,490Z" fill="#464646" stroke="#464646" stroke-width="1.51"/><path d="M774,600L862,496L720,490Z" fill="#494949" stroke="#494949" stroke-width="1.51"/><path d="M690,580L774,600L720,490Z" fill="#484848" stroke="#484848" stroke-width="1.51"/><path d="M589,306L543,376L572,413Z" fill="#3e3e3e" stroke="#3e3e3e" stroke-width="1.51"/><path d="M572,413L521,456L556,488Z" fill="#414141" stroke="#414141" stroke-width="1.51"/><path d="M656,341L589,306L572,413Z" fill="#3f3f3f" stroke="#3f3f3f" stroke-width="1.51"/><path d="M615,261L589,306L656,341Z" fill="#3d3d3d" stroke="#3d3d3d" stroke-width="1.51"/><path d="M543,376L521,456L572,413Z" fill="#404040" stroke="#404040" stroke-width="1.51"/><path d="M739,338L714,259L656,341Z" fill="#404040" stroke="#404040" stroke-width="1.51"/><path d="M805,241L714,259L739,338Z" fill="#404040" stroke="#404040" stroke-width="1.51"/><path d="M534,585L582,608L556,488Z" fill="#454545" stroke="#454545" stroke-width="1.51"/><path d="M556,488L582,608L670,474Z" fill="#454545" stroke="#454545" stroke-width="1.51"/><path d="M690,580L684,672L774,600Z" fill="#4a4a4a" stroke="#4a4a4a" stroke-width="1.51"/><path d="M589,306L488,319L543,376Z" fill="#3d3d3d" stroke="#3d3d3d" stroke-width="1.51"/><path d="M714,259L615,261L656,341Z" fill="#3e3e3e" stroke="#3e3e3e" stroke-width="1.51"/><path d="M855,389L870,300L739,338Z" fill="#444444" stroke="#444444" stroke-width="1.51"/><path d="M931,347L870,300L855,389Z" fill="#454545" stroke="#454545" stroke-width="1.51"/><path d="M521,456L534,585L556,488Z" fill="#434343" stroke="#434343" stroke-width="1.51"/><path d="M582,608L684,672L690,580Z" fill="#494949" stroke="#494949" stroke-width="1.51"/><path d="M584,664L684,672L582,608Z" fill="#494949" stroke="#494949" stroke-width="1.51"/><path d="M870,300L805,241L739,338Z" fill="#424242" stroke="#424242" stroke-width="1.51"/><path d="M714,259L644,160L615,261Z" fill="#3c3c3c" stroke="#3c3c3c" stroke-width="1.51"/><path d="M774,600L855,622L862,496Z" fill="#4b4b4b" stroke="#4b4b4b" stroke-width="1.51"/><path d="M867,676L855,622L774,600Z" fill="#4d4d4d" stroke="#4d4d4d" stroke-width="1.51"/><path d="M965,412L931,347L855,389Z" fill="#474747" stroke="#474747" stroke-width="1.51"/><path d="M850,195L743,161L805,241Z" fill="#3f3f3f" stroke="#3f3f3f" stroke-width="1.51"/><path d="M965,412L855,389L862,496Z" fill="#484848" stroke="#484848" stroke-width="1.51"/><path d="M516,629L584,664L582,608Z" fill="#474747" stroke="#474747" stroke-width="1.51"/><path d="M684,672L735,695L774,600Z" fill="#4b4b4b" stroke="#4b4b4b" stroke-width="1.51"/><path d="M727,775L735,695L684,672Z" fill="#4c4c4c" stroke="#4c4c4c" stroke-width="1.51"/><path d="M855,622L924,570L862,496Z" fill="#4c4c4c" stroke="#4c4c4c" stroke-width="1.51"/><path d="M543,376L451,453L521,456Z" fill="#3f3f3f" stroke="#3f3f3f" stroke-width="1.51"/><path d="M521,456L451,453L534,585Z" fill="#414141" stroke="#414141" stroke-width="1.51"/><path d="M537,211L488,319L589,306Z" fill="#3b3b3b" stroke="#3b3b3b" stroke-width="1.51"/><path d="M426,364L451,453L543,376Z" fill="#3e3e3e" stroke="#3e3e3e" stroke-width="1.51"/><path d="M924,570L951,529L862,496Z" fill="#4c4c4c" stroke="#4c4c4c" stroke-width="1.51"/><path d="M951,529L965,412L862,496Z" fill="#4a4a4a" stroke="#4a4a4a" stroke-width="1.51"/><path d="M406,558L516,629L534,585Z" fill="#444444" stroke="#444444" stroke-width="1.51"/><path d="M534,585L516,629L582,608Z" fill="#464646" stroke="#464646" stroke-width="1.51"/><path d="M924,570L1010,563L951,529Z" fill="#4e4e4e" stroke="#4e4e4e" stroke-width="1.51"/><path d="M855,622L944,692L924,570Z" fill="#4e4e4e" stroke="#4e4e4e" stroke-width="1.51"/><path d="M735,695L867,676L774,600Z" fill="#4d4d4d" stroke="#4d4d4d" stroke-width="1.51"/><path d="M951,529L993,464L965,412Z" fill="#4b4b4b" stroke="#4b4b4b" stroke-width="1.51"/><path d="M965,412L1015,301L931,347Z" fill="#474747" stroke="#474747" stroke-width="1.51"/><path d="M1010,563L993,464L951,529Z" fill="#4d4d4d" stroke="#4d4d4d" stroke-width="1.51"/><path d="M805,241L743,161L714,259Z" fill="#3f3f3f" stroke="#3f3f3f" stroke-width="1.51"/><path d="M615,261L537,211L589,306Z" fill="#3c3c3c" stroke="#3c3c3c" stroke-width="1.51"/><path d="M850,195L805,241L870,300Z" fill="#414141" stroke="#414141" stroke-width="1.51"/><path d="M963,192L850,195L870,300Z" fill="#424242" stroke="#424242" stroke-width="1.51"/><path d="M644,160L537,211L615,261Z" fill="#3b3b3b" stroke="#3b3b3b" stroke-width="1.51"/><path d="M488,319L426,364L543,376Z" fill="#3c3c3c" stroke="#3c3c3c" stroke-width="1.51"/><path d="M421,317L426,364L488,319Z" fill="#3b3b3b" stroke="#3b3b3b" stroke-width="1.51"/><path d="M743,161L644,160L714,259Z" fill="#3d3d3d" stroke="#3d3d3d" stroke-width="1.51"/><path d="M384,265L421,317L441,186Z" fill="#383838" stroke="#383838" stroke-width="1.51"/><path d="M501,773L611,746L584,664Z" fill="#494949" stroke="#494949" stroke-width="1.51"/><path d="M584,664L611,746L684,672Z" fill="#4a4a4a" stroke="#4a4a4a" stroke-width="1.51"/><path d="M735,695L838,792L867,676Z" fill="#4e4e4e" stroke="#4e4e4e" stroke-width="1.51"/><path d="M451,453L406,558L534,585Z" fill="#414141" stroke="#414141" stroke-width="1.51"/><path d="M516,629L501,773L584,664Z" fill="#484848" stroke="#484848" stroke-width="1.51"/><path d="M353,454L406,558L451,453Z" fill="#3f3f3f" stroke="#3f3f3f" stroke-width="1.51"/><path d="M353,454L451,453L352,411Z" fill="#3d3d3d" stroke="#3d3d3d" stroke-width="1.51"/><path d="M980,652L1010,563L924,570Z" fill="#4f4f4f" stroke="#4f4f4f" stroke-width="1.51"/><path d="M406,558L452,655L516,629Z" fill="#444444" stroke="#444444" stroke-width="1.51"/><path d="M662,785L727,775L684,672Z" fill="#4c4c4c" stroke="#4c4c4c" stroke-width="1.51"/><path d="M537,211L441,186L488,319Z" fill="#393939" stroke="#393939" stroke-width="1.51"/><path d="M564,134L507,181L537,211Z" fill="#393939" stroke="#393939" stroke-width="1.51"/><path d="M611,746L662,785L684,672Z" fill="#4b4b4b" stroke="#4b4b4b" stroke-width="1.51"/><path d="M651,822L662,785L611,746Z" fill="#4c4c4c" stroke="#4c4c4c" stroke-width="1.51"/><path d="M867,676L944,692L855,622Z" fill="#4f4f4f" stroke="#4f4f4f" stroke-width="1.51"/><path d="M944,783L944,692L924,797Z" fill="#525252" stroke="#525252" stroke-width="1.51"/><path d="M931,347L1015,301L870,300Z" fill="#454545" stroke="#454545" stroke-width="1.51"/><path d="M1061,446L1015,301L965,412Z" fill="#494949" stroke="#494949" stroke-width="1.51"/><path d="M1061,446L965,412L993,464Z" fill="#4b4b4b" stroke="#4b4b4b" stroke-width="1.51"/><path d="M944,692L980,652L924,570Z" fill="#505050" stroke="#505050" stroke-width="1.51"/><path d="M599,39L564,134L644,160Z" fill="#393939" stroke="#393939" stroke-width="1.51"/><path d="M644,160L564,134L537,211Z" fill="#3a3a3a" stroke="#3a3a3a" stroke-width="1.51"/><path d="M352,411L451,453L426,364Z" fill="#3c3c3c" stroke="#3c3c3c" stroke-width="1.51"/><path d="M406,558L357,580L452,655Z" fill="#424242" stroke="#424242" stroke-width="1.51"/><path d="M850,195L880,139L743,161Z" fill="#3f3f3f" stroke="#3f3f3f" stroke-width="1.51"/><path d="M743,161L720,60L644,160Z" fill="#3c3c3c" stroke="#3c3c3c" stroke-width="1.51"/><path d="M963,192L880,139L850,195Z" fill="#414141" stroke="#414141" stroke-width="1.51"/><path d="M1010,563L1061,446L993,464Z" fill="#4d4d4d" stroke="#4d4d4d" stroke-width="1.51"/><path d="M1085,454L1061,446L1010,563Z" fill="#4d4d4d" stroke="#4d4d4d" stroke-width="1.51"/><path d="M371,325L352,411L426,364Z" fill="#3b3b3b" stroke="#3b3b3b" stroke-width="1.51"/><path d="M371,325L426,364L421,317Z" fill="#3a3a3a" stroke="#3a3a3a" stroke-width="1.51"/><path d="M384,265L371,325L421,317Z" fill="#393939" stroke="#393939" stroke-width="1.51"/><path d="M1015,301L963,192L870,300Z" fill="#444444" stroke="#444444" stroke-width="1.51"/><path d="M727,775L838,792L735,695Z" fill="#4e4e4e" stroke="#4e4e4e" stroke-width="1.51"/><path d="M785,820L838,792L727,775Z" fill="#4f4f4f" stroke="#4f4f4f" stroke-width="1.51"/><path d="M371,325L281,379L352,411Z" fill="#3b3b3b" stroke="#3b3b3b" stroke-width="1.51"/><path d="M441,186L421,317L488,319Z" fill="#393939" stroke="#393939" stroke-width="1.51"/><path d="M441,186L537,211L507,181Z" fill="#383838" stroke="#383838" stroke-width="1.51"/><path d="M521,94L441,186L507,181Z" fill="#383838" stroke="#383838" stroke-width="1.51"/><path d="M353,454L357,580L406,558Z" fill="#404040" stroke="#404040" stroke-width="1.51"/><path d="M1061,446L1124,354L1015,301Z" fill="#494949" stroke="#494949" stroke-width="1.51"/><path d="M1143,550L1085,454L1010,563Z" fill="#4f4f4f" stroke="#4f4f4f" stroke-width="1.51"/><path d="M662,785L651,822L727,775Z" fill="#4d4d4d" stroke="#4d4d4d" stroke-width="1.51"/><path d="M563,860L651,822L611,746Z" fill="#4b4b4b" stroke="#4b4b4b" stroke-width="1.51"/><path d="M501,773L516,629L452,655Z" fill="#474747" stroke="#474747" stroke-width="1.51"/><path d="M736,905L785,820L727,775Z" fill="#4f4f4f" stroke="#4f4f4f" stroke-width="1.51"/><path d="M405,780L501,773L452,655Z" fill="#474747" stroke="#474747" stroke-width="1.51"/><path d="M824,50L720,60L743,161Z" fill="#3c3c3c" stroke="#3c3c3c" stroke-width="1.51"/><path d="M963,192L904,116L880,139Z" fill="#414141" stroke="#414141" stroke-width="1.51"/><path d="M824,50L743,161L880,139Z" fill="#3e3e3e" stroke="#3e3e3e" stroke-width="1.51"/><path d="M564,134L521,94L507,181Z" fill="#383838" stroke="#383838" stroke-width="1.51"/><path d="M1001,68L903,79L904,116Z" fill="#404040" stroke="#404040" stroke-width="1.51"/><path d="M1015,301L1023,210L963,192Z" fill="#454545" stroke="#454545" stroke-width="1.51"/><path d="M1129,242L1023,210L1015,301Z" fill="#454545" stroke="#454545" stroke-width="1.51"/><path d="M599,39L521,94L564,134Z" fill="#383838" stroke="#383838" stroke-width="1.51"/><path d="M1126,654L1143,550L1010,563Z" fill="#515151" stroke="#515151" stroke-width="1.51"/><path d="M944,692L1085,735L980,652Z" fill="#525252" stroke="#525252" stroke-width="1.51"/><path d="M924,797L944,692L867,676Z" fill="#515151" stroke="#515151" stroke-width="1.51"/><path d="M924,797L867,676L838,792Z" fill="#515151" stroke="#515151" stroke-width="1.51"/><path d="M873,853L924,797L838,792Z" fill="#525252" stroke="#525252" stroke-width="1.51"/><path d="M720,60L679,34L644,160Z" fill="#3a3a3a" stroke="#3a3a3a" stroke-width="1.51"/><path d="M653,-4L679,34L781,-10Z" fill="#393939" stroke="#393939" stroke-width="1.51"/><path d="M903,79L824,50L880,139Z" fill="#3f3f3f" stroke="#3f3f3f" stroke-width="1.51"/><path d="M903,79L880,139L904,116Z" fill="#404040" stroke="#404040" stroke-width="1.51"/><path d="M1085,454L1119,406L1061,446Z" fill="#4c4c4c" stroke="#4c4c4c" stroke-width="1.51"/><path d="M1171,507L1119,406L1085,454Z" fill="#4d4d4d" stroke="#4d4d4d" stroke-width="1.51"/><path d="M1001,68L904,116L963,192Z" fill="#424242" stroke="#424242" stroke-width="1.51"/><path d="M679,34L599,39L644,160Z" fill="#393939" stroke="#393939" stroke-width="1.51"/><path d="M1119,406L1124,354L1061,446Z" fill="#4b4b4b" stroke="#4b4b4b" stroke-width="1.51"/><path d="M352,411L281,379L353,454Z" fill="#3c3c3c" stroke="#3c3c3c" stroke-width="1.51"/><path d="M353,454L253,523L357,580Z" fill="#3f3f3f" stroke="#3f3f3f" stroke-width="1.51"/><path d="M235,311L281,379L371,325Z" fill="#393939" stroke="#393939" stroke-width="1.51"/><path d="M235,311L371,325L272,211Z" fill="#373737" stroke="#373737" stroke-width="1.51"/><path d="M651,822L736,905L727,775Z" fill="#4e4e4e" stroke="#4e4e4e" stroke-width="1.51"/><path d="M785,820L873,853L838,792Z" fill="#515151" stroke="#515151" stroke-width="1.51"/><path d="M501,773L563,860L611,746Z" fill="#4a4a4a" stroke="#4a4a4a" stroke-width="1.51"/><path d="M479,868L563,860L501,773Z" fill="#4a4a4a" stroke="#4a4a4a" stroke-width="1.51"/><path d="M992,874L1040,789L944,783Z" fill="#545454" stroke="#545454" stroke-width="1.51"/><path d="M851,920L873,853L785,820Z" fill="#525252" stroke="#525252" stroke-width="1.51"/><path d="M1126,654L1010,563L980,652Z" fill="#515151" stroke="#515151" stroke-width="1.51"/><path d="M1119,406L1209,447L1124,354Z" fill="#4b4b4b" stroke="#4b4b4b" stroke-width="1.51"/><path d="M325,716L405,780L452,655Z" fill="#454545" stroke="#454545" stroke-width="1.51"/><path d="M325,716L452,655L357,580Z" fill="#444444" stroke="#444444" stroke-width="1.51"/><path d="M441,186L331,195L384,265Z" fill="#373737" stroke="#373737" stroke-width="1.51"/><path d="M309,166L331,195L441,186Z" fill="#363636" stroke="#363636" stroke-width="1.51"/><path d="M309,166L441,186L410,20Z" fill="#353535" stroke="#353535" stroke-width="1.51"/><path d="M410,20L441,186L521,94Z" fill="#363636" stroke="#363636" stroke-width="1.51"/><path d="M679,34L653,-4L599,39Z" fill="#383838" stroke="#383838" stroke-width="1.51"/><path d="M781,-10L679,34L720,60Z" fill="#3a3a3a" stroke="#3a3a3a" stroke-width="1.51"/><path d="M623,905L736,905L651,822Z" fill="#4f4f4f" stroke="#4f4f4f" stroke-width="1.51"/><path d="M281,379L253,523L353,454Z" fill="#3d3d3d" stroke="#3d3d3d" stroke-width="1.51"/><path d="M824,50L781,-10L720,60Z" fill="#3b3b3b" stroke="#3b3b3b" stroke-width="1.51"/><path d="M825,-13L781,-10L824,50Z" fill="#3c3c3c" stroke="#3c3c3c" stroke-width="1.51"/><path d="M563,860L623,905L651,822Z" fill="#4d4d4d" stroke="#4d4d4d" stroke-width="1.51"/><path d="M518,889L623,905L563,860Z" fill="#4d4d4d" stroke="#4d4d4d" stroke-width="1.51"/><path d="M293,676L325,716L357,580Z" fill="#434343" stroke="#434343" stroke-width="1.51"/><path d="M253,523L262,590L357,580Z" fill="#404040" stroke="#404040" stroke-width="1.51"/><path d="M1085,735L944,692L1040,789Z" fill="#535353" stroke="#535353" stroke-width="1.51"/><path d="M1085,735L1126,654L980,652Z" fill="#535353" stroke="#535353" stroke-width="1.51"/><path d="M1196,602L1171,507L1143,550Z" fill="#515151" stroke="#515151" stroke-width="1.51"/><path d="M1143,550L1171,507L1085,454Z" fill="#4e4e4e" stroke="#4e4e4e" stroke-width="1.51"/><path d="M1124,354L1129,242L1015,301Z" fill="#474747" stroke="#474747" stroke-width="1.51"/><path d="M1023,210L1056,123L963,192Z" fill="#434343" stroke="#434343" stroke-width="1.51"/><path d="M903,79L825,-13L824,50Z" fill="#3d3d3d" stroke="#3d3d3d" stroke-width="1.51"/><path d="M1172,263L1129,242L1124,354Z" fill="#474747" stroke="#474747" stroke-width="1.51"/><path d="M262,590L293,676L357,580Z" fill="#424242" stroke="#424242" stroke-width="1.51"/><path d="M960,-33L825,-13L903,79Z" fill="#3e3e3e" stroke="#3e3e3e" stroke-width="1.51"/><path d="M569,-54L599,39L653,-4Z" fill="#373737" stroke="#373737" stroke-width="1.51"/><path d="M1040,789L944,692L944,783Z" fill="#535353" stroke="#535353" stroke-width="1.51"/><path d="M1129,242L1056,123L1023,210Z" fill="#444444" stroke="#444444" stroke-width="1.51"/><path d="M992,874L944,783L924,797Z" fill="#545454" stroke="#545454" stroke-width="1.51"/><path d="M405,780L479,868L501,773Z" fill="#484848" stroke="#484848" stroke-width="1.51"/><path d="M455,880L479,868L405,780Z" fill="#494949" stroke="#494949" stroke-width="1.51"/><path d="M1056,123L1001,68L963,192Z" fill="#434343" stroke="#434343" stroke-width="1.51"/><path d="M479,868L518,889L563,860Z" fill="#4c4c4c" stroke="#4c4c4c" stroke-width="1.51"/><path d="M353,860L455,880L405,780Z" fill="#484848" stroke="#484848" stroke-width="1.51"/><path d="M293,676L278,677L325,716Z" fill="#444444" stroke="#444444" stroke-width="1.51"/><path d="M262,590L278,677L293,676Z" fill="#434343" stroke="#434343" stroke-width="1.51"/><path d="M272,211L371,325L384,265Z" fill="#373737" stroke="#373737" stroke-width="1.51"/><path d="M135,490L162,550L253,523Z" fill="#3e3e3e" stroke="#3e3e3e" stroke-width="1.51"/><path d="M539,-10L521,94L599,39Z" fill="#373737" stroke="#373737" stroke-width="1.51"/><path d="M569,-54L539,-10L599,39Z" fill="#353535" stroke="#353535" stroke-width="1.51"/><path d="M569,-54L653,-4L642,-118Z" fill="#353535" stroke="#353535" stroke-width="1.51"/><path d="M272,211L384,265L331,195Z" fill="#363636" stroke="#363636" stroke-width="1.51"/><path d="M309,166L272,211L331,195Z" fill="#353535" stroke="#353535" stroke-width="1.51"/><path d="M873,853L992,874L924,797Z" fill="#535353" stroke="#535353" stroke-width="1.51"/><path d="M736,905L851,920L785,820Z" fill="#525252" stroke="#525252" stroke-width="1.51"/><path d="M832,1015L851,920L736,905Z" fill="#575757" stroke="#575757" stroke-width="1.51"/><path d="M479,868L455,880L518,889Z" fill="#4b4b4b" stroke="#4b4b4b" stroke-width="1.51"/><path d="M560,985L656,950L623,905Z" fill="#535353" stroke="#535353" stroke-width="1.51"/><path d="M353,860L405,780L325,716Z" fill="#464646" stroke="#464646" stroke-width="1.51"/><path d="M1129,242L1161,154L1056,123Z" fill="#454545" stroke="#454545" stroke-width="1.51"/><path d="M1217,297L1172,263L1124,354Z" fill="#494949" stroke="#494949" stroke-width="1.51"/><path d="M1171,507L1209,447L1119,406Z" fill="#4d4d4d" stroke="#4d4d4d" stroke-width="1.51"/><path d="M1313,533L1209,447L1171,507Z" fill="#4f4f4f" stroke="#4f4f4f" stroke-width="1.51"/><path d="M623,905L656,950L736,905Z" fill="#525252" stroke="#525252" stroke-width="1.51"/><path d="M560,985L623,905L518,889Z" fill="#505050" stroke="#505050" stroke-width="1.51"/><path d="M1126,654L1196,602L1143,550Z" fill="#525252" stroke="#525252" stroke-width="1.51"/><path d="M1193,694L1196,602L1126,654Z" fill="#545454" stroke="#545454" stroke-width="1.51"/><path d="M1193,694L1126,654L1085,735Z" fill="#545454" stroke="#545454" stroke-width="1.51"/><path d="M900,931L992,874L873,853Z" fill="#565656" stroke="#565656" stroke-width="1.51"/><path d="M1040,789L1092,833L1085,735Z" fill="#555555" stroke="#555555" stroke-width="1.51"/><path d="M539,-10L424,12L521,94Z" fill="#353535" stroke="#353535" stroke-width="1.51"/><path d="M309,166L276,122L272,211Z" fill="#343434" stroke="#343434" stroke-width="1.51"/><path d="M468,-133L392,-89L424,12Z" fill="#303030" stroke="#303030" stroke-width="1.51"/><path d="M642,-118L653,-4L740,-145Z" fill="#353535" stroke="#353535" stroke-width="1.51"/><path d="M424,12L410,20L521,94Z" fill="#353535" stroke="#353535" stroke-width="1.51"/><path d="M851,920L900,931L873,853Z" fill="#565656" stroke="#565656" stroke-width="1.51"/><path d="M832,1015L900,931L851,920Z" fill="#595959" stroke="#595959" stroke-width="1.51"/><path d="M1172,263L1161,154L1129,242Z" fill="#464646" stroke="#464646" stroke-width="1.51"/><path d="M1252,395L1217,297L1124,354Z" fill="#4a4a4a" stroke="#4a4a4a" stroke-width="1.51"/><path d="M329,21L276,122L309,166Z" fill="#343434" stroke="#343434" stroke-width="1.51"/><path d="M126,329L131,377L235,311Z" fill="#373737" stroke="#373737" stroke-width="1.51"/><path d="M1056,123L1060,13L1001,68Z" fill="#424242" stroke="#424242" stroke-width="1.51"/><path d="M1269,219L1161,154L1172,263Z" fill="#474747" stroke="#474747" stroke-width="1.51"/><path d="M1161,154L1139,121L1056,123Z" fill="#444444" stroke="#444444" stroke-width="1.51"/><path d="M1001,68L960,-33L903,79Z" fill="#404040" stroke="#404040" stroke-width="1.51"/><path d="M740,-145L653,-4L781,-10Z" fill="#373737" stroke="#373737" stroke-width="1.51"/><path d="M1060,13L960,-33L1001,68Z" fill="#404040" stroke="#404040" stroke-width="1.51"/><path d="M455,880L423,922L518,889Z" fill="#4c4c4c" stroke="#4c4c4c" stroke-width="1.51"/><path d="M230,736L353,860L325,716Z" fill="#454545" stroke="#454545" stroke-width="1.51"/><path d="M1025,937L1092,833L992,874Z" fill="#585858" stroke="#585858" stroke-width="1.51"/><path d="M992,874L1092,833L1040,789Z" fill="#555555" stroke="#555555" stroke-width="1.51"/><path d="M1313,533L1252,395L1209,447Z" fill="#4f4f4f" stroke="#4f4f4f" stroke-width="1.51"/><path d="M1169,792L1193,694L1085,735Z" fill="#555555" stroke="#555555" stroke-width="1.51"/><path d="M1209,447L1252,395L1124,354Z" fill="#4c4c4c" stroke="#4c4c4c" stroke-width="1.51"/><path d="M1313,533L1171,507L1196,602Z" fill="#515151" stroke="#515151" stroke-width="1.51"/><path d="M1139,121L1122,85L1056,123Z" fill="#434343" stroke="#434343" stroke-width="1.51"/><path d="M1168,85L1122,85L1139,121Z" fill="#444444" stroke="#444444" stroke-width="1.51"/><path d="M353,860L423,922L455,880Z" fill="#4a4a4a" stroke="#4a4a4a" stroke-width="1.51"/><path d="M253,523L162,550L262,590Z" fill="#3f3f3f" stroke="#3f3f3f" stroke-width="1.51"/><path d="M193,684L230,736L278,677Z" fill="#434343" stroke="#434343" stroke-width="1.51"/><path d="M278,677L230,736L325,716Z" fill="#444444" stroke="#444444" stroke-width="1.51"/><path d="M135,490L253,523L281,379Z" fill="#3c3c3c" stroke="#3c3c3c" stroke-width="1.51"/><path d="M135,490L281,379L131,377Z" fill="#3a3a3a" stroke="#3a3a3a" stroke-width="1.51"/><path d="M193,684L278,677L262,590Z" fill="#424242" stroke="#424242" stroke-width="1.51"/><path d="M656,950L732,1010L736,905Z" fill="#555555" stroke="#555555" stroke-width="1.51"/><path d="M470,993L560,985L518,889Z" fill="#515151" stroke="#515151" stroke-width="1.51"/><path d="M1122,85L1060,13L1056,123Z" fill="#434343" stroke="#434343" stroke-width="1.51"/><path d="M1193,694L1239,628L1196,602Z" fill="#545454" stroke="#545454" stroke-width="1.51"/><path d="M654,1019L732,1010L656,950Z" fill="#585858" stroke="#585858" stroke-width="1.51"/><path d="M162,550L193,684L262,590Z" fill="#404040" stroke="#404040" stroke-width="1.51"/><path d="M317,-6L410,20L392,-89Z" fill="#313131" stroke="#313131" stroke-width="1.51"/><path d="M317,-6L329,21L410,20Z" fill="#323232" stroke="#323232" stroke-width="1.51"/><path d="M820,-118L781,-10L825,-13Z" fill="#3a3a3a" stroke="#3a3a3a" stroke-width="1.51"/><path d="M410,20L329,21L309,166Z" fill="#343434" stroke="#343434" stroke-width="1.51"/><path d="M410,20L424,12L392,-89Z" fill="#323232" stroke="#323232" stroke-width="1.51"/><path d="M162,550L104,689L193,684Z" fill="#414141" stroke="#414141" stroke-width="1.51"/><path d="M131,377L281,379L235,311Z" fill="#393939" stroke="#393939" stroke-width="1.51"/><path d="M276,122L142,136L272,211Z" fill="#343434" stroke="#343434" stroke-width="1.51"/><path d="M329,21L256,91L276,122Z" fill="#333333" stroke="#333333" stroke-width="1.51"/><path d="M560,985L654,1019L656,950Z" fill="#565656" stroke="#565656" stroke-width="1.51"/><path d="M423,922L470,993L518,889Z" fill="#4f4f4f" stroke="#4f4f4f" stroke-width="1.51"/><path d="M353,860L359,906L423,922Z" fill="#4b4b4b" stroke="#4b4b4b" stroke-width="1.51"/><path d="M274,945L359,906L353,860Z" fill="#4a4a4a" stroke="#4a4a4a" stroke-width="1.51"/><path d="M960,-33L820,-118L825,-13Z" fill="#3b3b3b" stroke="#3b3b3b" stroke-width="1.51"/><path d="M968,-151L820,-118L960,-33Z" fill="#3a3a3a" stroke="#3a3a3a" stroke-width="1.51"/><path d="M1092,833L1169,792L1085,735Z" fill="#565656" stroke="#565656" stroke-width="1.51"/><path d="M1244,712L1270,618L1239,628Z" fill="#555555" stroke="#555555" stroke-width="1.51"/><path d="M126,329L235,311L117,274Z" fill="#363636" stroke="#363636" stroke-width="1.51"/><path d="M964,972L1025,937L992,874Z" fill="#5a5a5a" stroke="#5a5a5a" stroke-width="1.51"/><path d="M1092,833L1194,806L1169,792Z" fill="#565656" stroke="#565656" stroke-width="1.51"/><path d="M732,1010L832,1015L736,905Z" fill="#595959" stroke="#595959" stroke-width="1.51"/><path d="M654,1019L832,1015L732,1010Z" fill="#5b5b5b" stroke="#5b5b5b" stroke-width="1.51"/><path d="M964,972L992,874L900,931Z" fill="#595959" stroke="#595959" stroke-width="1.51"/><path d="M832,1015L964,972L900,931Z" fill="#5b5b5b" stroke="#5b5b5b" stroke-width="1.51"/><path d="M1269,219L1172,263L1217,297Z" fill="#484848" stroke="#484848" stroke-width="1.51"/><path d="M1258,157L1168,85L1161,154Z" fill="#454545" stroke="#454545" stroke-width="1.51"/><path d="M1161,154L1168,85L1139,121Z" fill="#454545" stroke="#454545" stroke-width="1.51"/><path d="M1208,-7L1114,-68L1060,13Z" fill="#404040" stroke="#404040" stroke-width="1.51"/><path d="M1244,712L1239,628L1193,694Z" fill="#555555" stroke="#555555" stroke-width="1.51"/><path d="M1239,628L1270,618L1196,602Z" fill="#545454" stroke="#545454" stroke-width="1.51"/><path d="M642,-118L630,-140L569,-54Z" fill="#333333" stroke="#333333" stroke-width="1.51"/><path d="M740,-145L630,-140L642,-118Z" fill="#343434" stroke="#343434" stroke-width="1.51"/><path d="M24,446L64,521L135,490Z" fill="#3a3a3a" stroke="#3a3a3a" stroke-width="1.51"/><path d="M117,274L235,311L272,211Z" fill="#363636" stroke="#363636" stroke-width="1.51"/><path d="M820,-118L740,-145L781,-10Z" fill="#383838" stroke="#383838" stroke-width="1.51"/><path d="M395,993L470,993L423,922Z" fill="#505050" stroke="#505050" stroke-width="1.51"/><path d="M560,985L470,993L654,1019Z" fill="#555555" stroke="#555555" stroke-width="1.51"/><path d="M329,21L257,-2L256,91Z" fill="#323232" stroke="#323232" stroke-width="1.51"/><path d="M424,12L539,-10L468,-133Z" fill="#323232" stroke="#323232" stroke-width="1.51"/><path d="M1169,792L1244,712L1193,694Z" fill="#565656" stroke="#565656" stroke-width="1.51"/><path d="M1169,792L1194,806L1244,712Z" fill="#565656" stroke="#565656" stroke-width="1.51"/><path d="M1167,962L1194,806L1092,833Z" fill="#585858" stroke="#585858" stroke-width="1.51"/><path d="M1292,278L1269,219L1217,297Z" fill="#484848" stroke="#484848" stroke-width="1.51"/><path d="M1292,278L1217,297L1252,395Z" fill="#4a4a4a" stroke="#4a4a4a" stroke-width="1.51"/><path d="M1354,393L1292,278L1252,395Z" fill="#4c4c4c" stroke="#4c4c4c" stroke-width="1.51"/><path d="M1270,618L1313,533L1196,602Z" fill="#535353" stroke="#535353" stroke-width="1.51"/><path d="M1325,567L1313,533L1270,618Z" fill="#535353" stroke="#535353" stroke-width="1.51"/><path d="M24,446L135,490L131,377Z" fill="#393939" stroke="#393939" stroke-width="1.51"/><path d="M142,136L117,274L272,211Z" fill="#343434" stroke="#343434" stroke-width="1.51"/><path d="M142,136L276,122L256,91Z" fill="#333333" stroke="#333333" stroke-width="1.51"/><path d="M468,-133L539,-10L569,-54Z" fill="#333333" stroke="#333333" stroke-width="1.51"/><path d="M1266,96L1258,157L1350,116Z" fill="#464646" stroke="#464646" stroke-width="1.51"/><path d="M1269,219L1258,157L1161,154Z" fill="#464646" stroke="#464646" stroke-width="1.51"/><path d="M630,-140L468,-133L569,-54Z" fill="#323232" stroke="#323232" stroke-width="1.51"/><path d="M370,-136L468,-133L630,-140Z" fill="#303030" stroke="#303030" stroke-width="1.51"/><path d="M348,974L395,993L423,922Z" fill="#4f4f4f" stroke="#4f4f4f" stroke-width="1.51"/><path d="M470,993L287,1007L654,1019Z" fill="#545454" stroke="#545454" stroke-width="1.51"/><path d="M348,974L423,922L359,906Z" fill="#4d4d4d" stroke="#4d4d4d" stroke-width="1.51"/><path d="M205,829L353,860L230,736Z" fill="#454545" stroke="#454545" stroke-width="1.51"/><path d="M136,773L205,829L230,736Z" fill="#444444" stroke="#444444" stroke-width="1.51"/><path d="M136,773L230,736L193,684Z" fill="#434343" stroke="#434343" stroke-width="1.51"/><path d="M1382,703L1325,567L1270,618Z" fill="#565656" stroke="#565656" stroke-width="1.51"/><path d="M1313,533L1354,393L1252,395Z" fill="#4f4f4f" stroke="#4f4f4f" stroke-width="1.51"/><path d="M1382,703L1270,618L1244,712Z" fill="#565656" stroke="#565656" stroke-width="1.51"/><path d="M1114,-68L1021,-101L1060,13Z" fill="#3e3e3e" stroke="#3e3e3e" stroke-width="1.51"/><path d="M1060,13L1021,-101L960,-33Z" fill="#3e3e3e" stroke="#3e3e3e" stroke-width="1.51"/><path d="M820,-118L968,-151L740,-145Z" fill="#373737" stroke="#373737" stroke-width="1.51"/><path d="M1060,13L1122,85L1208,-7Z" fill="#424242" stroke="#424242" stroke-width="1.51"/><path d="M205,-128L257,-2L317,-6Z" fill="#2f2f2f" stroke="#2f2f2f" stroke-width="1.51"/><path d="M317,-6L257,-2L329,21Z" fill="#313131" stroke="#313131" stroke-width="1.51"/><path d="M274,945L348,974L359,906Z" fill="#4d4d4d" stroke="#4d4d4d" stroke-width="1.51"/><path d="M171,57L142,136L256,91Z" fill="#323232" stroke="#323232" stroke-width="1.51"/><path d="M135,490L64,521L162,550Z" fill="#3c3c3c" stroke="#3c3c3c" stroke-width="1.51"/><path d="M68,329L131,377L126,329Z" fill="#363636" stroke="#363636" stroke-width="1.51"/><path d="M68,329L126,329L117,274Z" fill="#353535" stroke="#353535" stroke-width="1.51"/><path d="M51,561L104,689L162,550Z" fill="#3f3f3f" stroke="#3f3f3f" stroke-width="1.51"/><path d="M60,253L68,329L117,274Z" fill="#343434" stroke="#343434" stroke-width="1.51"/><path d="M1410,492L1354,393L1313,533Z" fill="#525252" stroke="#525252" stroke-width="1.51"/><path d="M1350,116L1258,157L1269,219Z" fill="#474747" stroke="#474747" stroke-width="1.51"/><path d="M1021,-101L968,-151L960,-33Z" fill="#3c3c3c" stroke="#3c3c3c" stroke-width="1.51"/><path d="M108,719L136,773L193,684Z" fill="#434343" stroke="#434343" stroke-width="1.51"/><path d="M205,829L274,945L353,860Z" fill="#484848" stroke="#484848" stroke-width="1.51"/><path d="M1208,-7L1122,85L1168,85Z" fill="#434343" stroke="#434343" stroke-width="1.51"/><path d="M1021,-101L1081,-150L968,-151Z" fill="#3b3b3b" stroke="#3b3b3b" stroke-width="1.51"/><path d="M104,689L108,719L193,684Z" fill="#424242" stroke="#424242" stroke-width="1.51"/><path d="M89,799L108,719L-24,737Z" fill="#404040" stroke="#404040" stroke-width="1.51"/><path d="M1025,937L1134,968L1092,833Z" fill="#5a5a5a" stroke="#5a5a5a" stroke-width="1.51"/><path d="M964,972L1048,1010L1025,937Z" fill="#5e5e5e" stroke="#5e5e5e" stroke-width="1.51"/><path d="M832,1015L1048,1010L964,972Z" fill="#5e5e5e" stroke="#5e5e5e" stroke-width="1.51"/><path d="M348,974L287,1007L395,993Z" fill="#515151" stroke="#515151" stroke-width="1.51"/><path d="M199,907L274,945L205,829Z" fill="#484848" stroke="#484848" stroke-width="1.51"/><path d="M1353,255L1269,219L1292,278Z" fill="#494949" stroke="#494949" stroke-width="1.51"/><path d="M1258,157L1266,96L1168,85Z" fill="#454545" stroke="#454545" stroke-width="1.51"/><path d="M142,136L104,169L117,274Z" fill="#333333" stroke="#333333" stroke-width="1.51"/><path d="M257,-2L171,57L256,91Z" fill="#323232" stroke="#323232" stroke-width="1.51"/><path d="M63,96L104,169L142,136Z" fill="#313131" stroke="#313131" stroke-width="1.51"/><path d="M64,521L51,561L162,550Z" fill="#3d3d3d" stroke="#3d3d3d" stroke-width="1.51"/><path d="M26,585L51,561L-1,517Z" fill="#3c3c3c" stroke="#3c3c3c" stroke-width="1.51"/><path d="M75,15L63,96L171,57Z" fill="#303030" stroke="#303030" stroke-width="1.51"/><path d="M392,-89L370,-136L317,-6Z" fill="#2f2f2f" stroke="#2f2f2f" stroke-width="1.51"/><path d="M468,-133L370,-136L392,-89Z" fill="#2e2e2e" stroke="#2e2e2e" stroke-width="1.51"/><path d="M740,-145L370,-136L630,-140Z" fill="#323232" stroke="#323232" stroke-width="1.51"/><path d="M95,-139L370,-136L-59,-151Z" fill="#2b2b2b" stroke="#2b2b2b" stroke-width="1.51"/><path d="M1194,806L1296,829L1244,712Z" fill="#575757" stroke="#575757" stroke-width="1.51"/><path d="M1048,1010L1134,968L1025,937Z" fill="#5e5e5e" stroke="#5e5e5e" stroke-width="1.51"/><path d="M68,329L35,374L131,377Z" fill="#363636" stroke="#363636" stroke-width="1.51"/><path d="M104,169L60,253L117,274Z" fill="#333333" stroke="#333333" stroke-width="1.51"/><path d="M1379,301L1353,255L1292,278Z" fill="#4b4b4b" stroke="#4b4b4b" stroke-width="1.51"/><path d="M-28,292L35,374L68,329Z" fill="#343434" stroke="#343434" stroke-width="1.51"/><path d="M1134,968L1144,962L1092,833Z" fill="#5c5c5c" stroke="#5c5c5c" stroke-width="1.51"/><path d="M1266,96L1208,-7L1168,85Z" fill="#444444" stroke="#444444" stroke-width="1.51"/><path d="M35,374L24,446L131,377Z" fill="#373737" stroke="#373737" stroke-width="1.51"/><path d="M115,857L205,829L136,773Z" fill="#444444" stroke="#444444" stroke-width="1.51"/><path d="M115,857L199,907L205,829Z" fill="#464646" stroke="#464646" stroke-width="1.51"/><path d="M1353,255L1350,116L1269,219Z" fill="#494949" stroke="#494949" stroke-width="1.51"/><path d="M1354,393L1379,301L1292,278Z" fill="#4d4d4d" stroke="#4d4d4d" stroke-width="1.51"/><path d="M1436,356L1379,301L1354,393Z" fill="#505050" stroke="#505050" stroke-width="1.51"/><path d="M1134,968L1167,962L1144,962Z" fill="#5f5f5f" stroke="#5f5f5f" stroke-width="1.51"/><path d="M1144,962L1167,962L1092,833Z" fill="#5b5b5b" stroke="#5b5b5b" stroke-width="1.51"/><path d="M1243,1018L1167,962L1215,1053Z" fill="#636363" stroke="#636363" stroke-width="1.51"/><path d="M51,561L26,585L104,689Z" fill="#3e3e3e" stroke="#3e3e3e" stroke-width="1.51"/><path d="M108,719L89,799L136,773Z" fill="#424242" stroke="#424242" stroke-width="1.51"/><path d="M-1,517L51,561L64,521Z" fill="#3b3b3b" stroke="#3b3b3b" stroke-width="1.51"/><path d="M199,907L287,1007L274,945Z" fill="#4d4d4d" stroke="#4d4d4d" stroke-width="1.51"/><path d="M274,945L287,1007L348,974Z" fill="#4f4f4f" stroke="#4f4f4f" stroke-width="1.51"/><path d="M395,993L287,1007L470,993Z" fill="#525252" stroke="#525252" stroke-width="1.51"/><path d="M1167,962L1296,829L1194,806Z" fill="#595959" stroke="#595959" stroke-width="1.51"/><path d="M1325,567L1410,492L1313,533Z" fill="#545454" stroke="#545454" stroke-width="1.51"/><path d="M1296,829L1325,783L1244,712Z" fill="#575757" stroke="#575757" stroke-width="1.51"/><path d="M1154,-119L1081,-150L1114,-68Z" fill="#3d3d3d" stroke="#3d3d3d" stroke-width="1.51"/><path d="M1114,-68L1081,-150L1021,-101Z" fill="#3d3d3d" stroke="#3d3d3d" stroke-width="1.51"/><path d="M1448,653L1410,492L1325,567Z" fill="#585858" stroke="#585858" stroke-width="1.51"/><path d="M-24,737L108,719L104,689Z" fill="#404040" stroke="#404040" stroke-width="1.51"/><path d="M199,907L121,1021L287,1007Z" fill="#4e4e4e" stroke="#4e4e4e" stroke-width="1.51"/><path d="M-53,684L-24,737L104,689Z" fill="#3f3f3f" stroke="#3f3f3f" stroke-width="1.51"/><path d="M24,446L-1,517L64,521Z" fill="#3a3a3a" stroke="#3a3a3a" stroke-width="1.51"/><path d="M-111,411L-1,517L24,446Z" fill="#373737" stroke="#373737" stroke-width="1.51"/><path d="M-111,411L24,446L35,374Z" fill="#363636" stroke="#363636" stroke-width="1.51"/><path d="M89,799L115,857L136,773Z" fill="#434343" stroke="#434343" stroke-width="1.51"/><path d="M1208,-7L1154,-119L1114,-68Z" fill="#3f3f3f" stroke="#3f3f3f" stroke-width="1.51"/><path d="M1314,-127L1154,-119L1208,-7Z" fill="#3f3f3f" stroke="#3f3f3f" stroke-width="1.51"/><path d="M1295,13L1208,-7L1266,96Z" fill="#444444" stroke="#444444" stroke-width="1.51"/><path d="M1410,492L1428,446L1354,393Z" fill="#545454" stroke="#545454" stroke-width="1.51"/><path d="M1495,479L1428,446L1410,492Z" fill="#575757" stroke="#575757" stroke-width="1.51"/><path d="M1325,783L1382,703L1244,712Z" fill="#585858" stroke="#585858" stroke-width="1.51"/><path d="M1337,825L1382,703L1325,783Z" fill="#5a5a5a" stroke="#5a5a5a" stroke-width="1.51"/><path d="M1388,94L1350,116L1428,156Z" fill="#4a4a4a" stroke="#4a4a4a" stroke-width="1.51"/><path d="M1350,116L1353,255L1428,156Z" fill="#4a4a4a" stroke="#4a4a4a" stroke-width="1.51"/><path d="M1350,116L1295,13L1266,96Z" fill="#464646" stroke="#464646" stroke-width="1.51"/><path d="M104,169L-54,159L60,253Z" fill="#313131" stroke="#313131" stroke-width="1.51"/><path d="M60,253L-28,292L68,329Z" fill="#333333" stroke="#333333" stroke-width="1.51"/><path d="M171,57L63,96L142,136Z" fill="#313131" stroke="#313131" stroke-width="1.51"/><path d="M180,-68L171,57L257,-2Z" fill="#303030" stroke="#303030" stroke-width="1.51"/><path d="M1296,829L1337,825L1325,783Z" fill="#595959" stroke="#595959" stroke-width="1.51"/><path d="M1304,964L1337,825L1296,829Z" fill="#5b5b5b" stroke="#5b5b5b" stroke-width="1.51"/><path d="M1428,446L1436,356L1354,393Z" fill="#535353" stroke="#535353" stroke-width="1.51"/><path d="M205,-128L180,-68L257,-2Z" fill="#2e2e2e" stroke="#2e2e2e" stroke-width="1.51"/><path d="M-54,159L-18,263L60,253Z" fill="#303030" stroke="#303030" stroke-width="1.51"/><path d="M-18,263L-28,292L60,253Z" fill="#323232" stroke="#323232" stroke-width="1.51"/><path d="M370,-136L205,-128L317,-6Z" fill="#2e2e2e" stroke="#2e2e2e" stroke-width="1.51"/><path d="M180,-68L75,15L171,57Z" fill="#2f2f2f" stroke="#2f2f2f" stroke-width="1.51"/><path d="M63,96L-54,159L104,169Z" fill="#303030" stroke="#303030" stroke-width="1.51"/><path d="M95,-139L75,15L180,-68Z" fill="#2d2d2d" stroke="#2d2d2d" stroke-width="1.51"/><path d="M1350,116L1388,94L1295,13Z" fill="#474747" stroke="#474747" stroke-width="1.51"/><path d="M1295,13L1314,-127L1208,-7Z" fill="#414141" stroke="#414141" stroke-width="1.51"/><path d="M1428,156L1353,255L1497,202Z" fill="#4d4d4d" stroke="#4d4d4d" stroke-width="1.51"/><path d="M1382,703L1448,653L1325,567Z" fill="#595959" stroke="#595959" stroke-width="1.51"/><path d="M1428,446L1542,365L1436,356Z" fill="#555555" stroke="#555555" stroke-width="1.51"/><path d="M1488,711L1448,653L1382,703Z" fill="#5d5d5d" stroke="#5d5d5d" stroke-width="1.51"/><path d="M205,-128L179,-125L180,-68Z" fill="#2c2c2c" stroke="#2c2c2c" stroke-width="1.51"/><path d="M1500,285L1379,301L1436,356Z" fill="#515151" stroke="#515151" stroke-width="1.51"/><path d="M1497,202L1353,255L1379,301Z" fill="#4d4d4d" stroke="#4d4d4d" stroke-width="1.51"/><path d="M1488,711L1489,616L1448,653Z" fill="#5e5e5e" stroke="#5e5e5e" stroke-width="1.51"/><path d="M1167,962L1304,964L1296,829Z" fill="#5d5d5d" stroke="#5d5d5d" stroke-width="1.51"/><path d="M1215,1053L1167,962L1134,968Z" fill="#616161" stroke="#616161" stroke-width="1.51"/><path d="M1215,1053L1134,968L1048,1010Z" fill="#626262" stroke="#626262" stroke-width="1.51"/><path d="M1215,1053L1048,1010L832,1015Z" fill="#626262" stroke="#626262" stroke-width="1.51"/><path d="M-41,870L39,936L115,857Z" fill="#444444" stroke="#444444" stroke-width="1.51"/><path d="M115,857L121,1021L199,907Z" fill="#4a4a4a" stroke="#4a4a4a" stroke-width="1.51"/><path d="M-53,684L104,689L26,585Z" fill="#3f3f3f" stroke="#3f3f3f" stroke-width="1.51"/><path d="M-53,684L26,585L-137,581Z" fill="#3b3b3b" stroke="#3b3b3b" stroke-width="1.51"/><path d="M1489,616L1495,479L1410,492Z" fill="#5a5a5a" stroke="#5a5a5a" stroke-width="1.51"/><path d="M1243,1018L1304,964L1167,962Z" fill="#616161" stroke="#616161" stroke-width="1.51"/><path d="M1329,1026L1404,924L1304,964Z" fill="#646464" stroke="#646464" stroke-width="1.51"/><path d="M654,1019L1215,1053L832,1015Z" fill="#5f5f5f" stroke="#5f5f5f" stroke-width="1.51"/><path d="M121,1021L1215,1053L654,1019Z" fill="#5a5a5a" stroke="#5a5a5a" stroke-width="1.51"/><path d="M-137,581L26,585L-1,517Z" fill="#3a3a3a" stroke="#3a3a3a" stroke-width="1.51"/><path d="M1448,653L1489,616L1410,492Z" fill="#5b5b5b" stroke="#5b5b5b" stroke-width="1.51"/><path d="M1488,711L1382,703L1503,735Z" fill="#5e5e5e" stroke="#5e5e5e" stroke-width="1.51"/><path d="M75,15L-8,83L63,96Z" fill="#2f2f2f" stroke="#2f2f2f" stroke-width="1.51"/><path d="M-18,263L-106,294L-28,292Z" fill="#313131" stroke="#313131" stroke-width="1.51"/><path d="M-3,-27L-8,83L75,15Z" fill="#2d2d2d" stroke="#2d2d2d" stroke-width="1.51"/><path d="M1542,365L1500,285L1436,356Z" fill="#555555" stroke="#555555" stroke-width="1.51"/><path d="M-8,83L-54,159L63,96Z" fill="#2e2e2e" stroke="#2e2e2e" stroke-width="1.51"/><path d="M-28,292L-111,411L35,374Z" fill="#343434" stroke="#343434" stroke-width="1.51"/><path d="M-106,294L-111,411L-28,292Z" fill="#323232" stroke="#323232" stroke-width="1.51"/><path d="M287,1007L121,1021L654,1019Z" fill="#525252" stroke="#525252" stroke-width="1.51"/><path d="M39,936L121,1021L115,857Z" fill="#494949" stroke="#494949" stroke-width="1.51"/><path d="M115,857L89,799L-41,870Z" fill="#424242" stroke="#424242" stroke-width="1.51"/><path d="M1525,74L1426,44L1428,156Z" fill="#4d4d4d" stroke="#4d4d4d" stroke-width="1.51"/><path d="M1428,156L1426,44L1388,94Z" fill="#4b4b4b" stroke="#4b4b4b" stroke-width="1.51"/><path d="M1388,94L1392,-25L1295,13Z" fill="#474747" stroke="#474747" stroke-width="1.51"/><path d="M1575,451L1542,365L1495,479Z" fill="#5a5a5a" stroke="#5a5a5a" stroke-width="1.51"/><path d="M1503,735L1382,703L1480,829Z" fill="#5f5f5f" stroke="#5f5f5f" stroke-width="1.51"/><path d="M-92,217L-106,294L-18,263Z" fill="#303030" stroke="#303030" stroke-width="1.51"/><path d="M-41,870L89,799L-24,737Z" fill="#404040" stroke="#404040" stroke-width="1.51"/><path d="M1500,285L1497,202L1379,301Z" fill="#505050" stroke="#505050" stroke-width="1.51"/><path d="M-124,117L-92,217L-54,159Z" fill="#2d2d2d" stroke="#2d2d2d" stroke-width="1.51"/><path d="M-54,159L-92,217L-18,263Z" fill="#2f2f2f" stroke="#2f2f2f" stroke-width="1.51"/><path d="M1426,44L1392,-25L1388,94Z" fill="#494949" stroke="#494949" stroke-width="1.51"/><path d="M1154,-119L1314,-127L1081,-150Z" fill="#3d3d3d" stroke="#3d3d3d" stroke-width="1.51"/><path d="M1392,-25L1314,-127L1295,13Z" fill="#434343" stroke="#434343" stroke-width="1.51"/><path d="M-106,294L-128,520L-111,411Z" fill="#333333" stroke="#333333" stroke-width="1.51"/><path d="M-111,411L-128,520L-1,517Z" fill="#373737" stroke="#373737" stroke-width="1.51"/><path d="M-99,782L-41,870L-24,737Z" fill="#3f3f3f" stroke="#3f3f3f" stroke-width="1.51"/><path d="M1495,479L1542,365L1428,446Z" fill="#585858" stroke="#585858" stroke-width="1.51"/><path d="M1500,285L1537,220L1497,202Z" fill="#535353" stroke="#535353" stroke-width="1.51"/><path d="M1535,612L1495,479L1489,616Z" fill="#5d5d5d" stroke="#5d5d5d" stroke-width="1.51"/><path d="M121,1021L89,1021L1215,1053Z" fill="#565656" stroke="#565656" stroke-width="1.51"/><path d="M39,936L89,1021L121,1021Z" fill="#4c4c4c" stroke="#4c4c4c" stroke-width="1.51"/><path d="M1532,632L1535,612L1489,616Z" fill="#5f5f5f" stroke="#5f5f5f" stroke-width="1.51"/><path d="M1304,964L1404,924L1337,825Z" fill="#5f5f5f" stroke="#5f5f5f" stroke-width="1.51"/><path d="M1488,711L1532,632L1489,616Z" fill="#606060" stroke="#606060" stroke-width="1.51"/><path d="M1329,1026L1304,964L1243,1018Z" fill="#636363" stroke="#636363" stroke-width="1.51"/><path d="M1503,735L1532,632L1488,711Z" fill="#606060" stroke="#606060" stroke-width="1.51"/><path d="M179,-125L95,-139L180,-68Z" fill="#2c2c2c" stroke="#2c2c2c" stroke-width="1.51"/><path d="M-8,83L-59,51L-54,159Z" fill="#2e2e2e" stroke="#2e2e2e" stroke-width="1.51"/><path d="M205,-128L95,-139L179,-125Z" fill="#2b2b2b" stroke="#2b2b2b" stroke-width="1.51"/><path d="M370,-136L95,-139L205,-128Z" fill="#2c2c2c" stroke="#2c2c2c" stroke-width="1.51"/><path d="M-59,-151L370,-136L740,-145Z" fill="#2d2d2d" stroke="#2d2d2d" stroke-width="1.51"/><path d="M1480,829L1382,703L1337,825Z" fill="#5d5d5d" stroke="#5d5d5d" stroke-width="1.51"/><path d="M1215,1053L1329,1026L1243,1018Z" fill="#656565" stroke="#656565" stroke-width="1.51"/><path d="M6,-102L-3,-27L75,15Z" fill="#2b2b2b" stroke="#2b2b2b" stroke-width="1.51"/><path d="M-128,520L-137,581L-1,517Z" fill="#383838" stroke="#383838" stroke-width="1.51"/><path d="M-124,117L-137,581L-128,520Z" fill="#333333" stroke="#333333" stroke-width="1.51"/><path d="M39,936L-42,1002L89,1021Z" fill="#4b4b4b" stroke="#4b4b4b" stroke-width="1.51"/><path d="M-99,782L-24,737L-53,684Z" fill="#3e3e3e" stroke="#3e3e3e" stroke-width="1.51"/><path d="M1542,365L1537,220L1500,285Z" fill="#555555" stroke="#555555" stroke-width="1.51"/><path d="M1497,202L1525,74L1428,156Z" fill="#4f4f4f" stroke="#4f4f4f" stroke-width="1.51"/><path d="M1449,-40L1355,-127L1392,-25Z" fill="#464646" stroke="#464646" stroke-width="1.51"/><path d="M-3,-27L-59,51L-8,83Z" fill="#2c2c2c" stroke="#2c2c2c" stroke-width="1.51"/><path d="M1503,735L1549,814L1532,632Z" fill="#626262" stroke="#626262" stroke-width="1.51"/><path d="M1404,924L1480,829L1337,825Z" fill="#5f5f5f" stroke="#5f5f5f" stroke-width="1.51"/><path d="M1481,884L1480,829L1404,924Z" fill="#636363" stroke="#636363" stroke-width="1.51"/><path d="M-137,581L-127,682L-53,684Z" fill="#3b3b3b" stroke="#3b3b3b" stroke-width="1.51"/><path d="M1392,-25L1355,-127L1314,-127Z" fill="#434343" stroke="#434343" stroke-width="1.51"/><path d="M1314,-127L1355,-127L1081,-150Z" fill="#3e3e3e" stroke="#3e3e3e" stroke-width="1.51"/><path d="M1449,-40L1392,-25L1426,44Z" fill="#494949" stroke="#494949" stroke-width="1.51"/><path d="M1542,365L1575,451L1537,220Z" fill="#585858" stroke="#585858" stroke-width="1.51"/><path d="M1535,612L1575,451L1495,479Z" fill="#5d5d5d" stroke="#5d5d5d" stroke-width="1.51"/><path d="M1549,814L1575,451L1535,612Z" fill="#616161" stroke="#616161" stroke-width="1.51"/><path d="M-127,682L-99,782L-53,684Z" fill="#3c3c3c" stroke="#3c3c3c" stroke-width="1.51"/><path d="M-115,879L-34,911L-41,870Z" fill="#424242" stroke="#424242" stroke-width="1.51"/><path d="M-41,870L-34,911L39,936Z" fill="#444444" stroke="#444444" stroke-width="1.51"/><path d="M1525,74L1449,-40L1426,44Z" fill="#4c4c4c" stroke="#4c4c4c" stroke-width="1.51"/><path d="M1526,899L1481,884L1482,1016Z" fill="#686868" stroke="#686868" stroke-width="1.51"/><path d="M1480,829L1549,814L1503,735Z" fill="#626262" stroke="#626262" stroke-width="1.51"/><path d="M1532,632L1549,814L1535,612Z" fill="#626262" stroke="#626262" stroke-width="1.51"/><path d="M-3,-27L-125,-23L-59,51Z" fill="#2b2b2b" stroke="#2b2b2b" stroke-width="1.51"/><path d="M95,-139L6,-102L75,15Z" fill="#2b2b2b" stroke="#2b2b2b" stroke-width="1.51"/><path d="M-125,-23L-124,117L-59,51Z" fill="#2b2b2b" stroke="#2b2b2b" stroke-width="1.51"/><path d="M-59,51L-124,117L-54,159Z" fill="#2d2d2d" stroke="#2d2d2d" stroke-width="1.51"/><path d="M-92,217L-124,117L-106,294Z" fill="#2e2e2e" stroke="#2e2e2e" stroke-width="1.51"/><path d="M-106,294L-124,117L-128,520Z" fill="#303030" stroke="#303030" stroke-width="1.51"/><path d="M1572,111L1525,74L1497,202Z" fill="#525252" stroke="#525252" stroke-width="1.51"/><path d="M1572,111L1497,202L1537,220Z" fill="#535353" stroke="#535353" stroke-width="1.51"/><path d="M1526,899L1549,814L1480,829Z" fill="#646464" stroke="#646464" stroke-width="1.51"/><path d="M-99,782L-115,879L-41,870Z" fill="#3f3f3f" stroke="#3f3f3f" stroke-width="1.51"/><path d="M-34,911L-42,1002L39,936Z" fill="#474747" stroke="#474747" stroke-width="1.51"/><path d="M-127,682L-115,879L-99,782Z" fill="#3d3d3d" stroke="#3d3d3d" stroke-width="1.51"/><path d="M-129,1003L-115,879L-127,682Z" fill="#3e3e3e" stroke="#3e3e3e" stroke-width="1.51"/><path d="M1530,-62L1473,-109L1449,-40Z" fill="#494949" stroke="#494949" stroke-width="1.51"/><path d="M1575,451L1572,111L1537,220Z" fill="#565656" stroke="#565656" stroke-width="1.51"/><path d="M-108,945L-42,1002L-34,911Z" fill="#464646" stroke="#464646" stroke-width="1.51"/><path d="M1481,884L1526,899L1480,829Z" fill="#646464" stroke="#646464" stroke-width="1.51"/><path d="M1482,1016L1481,884L1404,924Z" fill="#676767" stroke="#676767" stroke-width="1.51"/><path d="M1449,-40L1473,-109L1355,-127Z" fill="#464646" stroke="#464646" stroke-width="1.51"/><path d="M1530,-62L1449,-40L1525,74Z" fill="#4c4c4c" stroke="#4c4c4c" stroke-width="1.51"/><path d="M-115,879L-108,945L-34,911Z" fill="#434343" stroke="#434343" stroke-width="1.51"/><path d="M6,-102L-125,-23L-3,-27Z" fill="#2a2a2a" stroke="#2a2a2a" stroke-width="1.51"/><path d="M-124,117L-125,-23L-137,581Z" fill="#2e2e2e" stroke="#2e2e2e" stroke-width="1.51"/><path d="M1329,1026L1482,1016L1404,924Z" fill="#686868" stroke="#686868" stroke-width="1.51"/><path d="M1504,1040L1482,1016L1329,1026Z" fill="#6c6c6c" stroke="#6c6c6c" stroke-width="1.51"/><path d="M1572,111L1530,-62L1525,74Z" fill="#505050" stroke="#505050" stroke-width="1.51"/><path d="M6,-102L-59,-151L-125,-23Z" fill="#282828" stroke="#282828" stroke-width="1.51"/><path d="M95,-139L-59,-151L6,-102Z" fill="#282828" stroke="#282828" stroke-width="1.51"/><path d="M968,-151L-59,-151L740,-145Z" fill="#303030" stroke="#303030" stroke-width="1.51"/><path d="M1215,1053L1504,1040L1329,1026Z" fill="#696969" stroke="#696969" stroke-width="1.51"/><path d="M1482,1016L1504,1040L1526,899Z" fill="#6d6d6d" stroke="#6d6d6d" stroke-width="1.51"/><path d="M1526,899L1504,1040L1549,814Z" fill="#696969" stroke="#696969" stroke-width="1.51"/><path d="M-115,879L-129,1003L-108,945Z" fill="#444444" stroke="#444444" stroke-width="1.51"/><path d="M-108,945L-129,1003L-42,1002Z" fill="#484848" stroke="#484848" stroke-width="1.51"/><path d="M-42,1002L-129,1003L89,1021Z" fill="#4b4b4b" stroke="#4b4b4b" stroke-width="1.51"/><path d="M-137,581L-129,1003L-127,682Z" fill="#3d3d3d" stroke="#3d3d3d" stroke-width="1.51"/><path d="M1530,-62L1572,-129L1473,-109Z" fill="#4a4a4a" stroke="#4a4a4a" stroke-width="1.51"/><path d="M1473,-109L1572,-129L1355,-127Z" fill="#474747" stroke="#474747" stroke-width="1.51"/><path d="M1355,-127L1572,-129L1081,-150Z" fill="#404040" stroke="#404040" stroke-width="1.51"/><path d="M1572,111L1572,-129L1530,-62Z" fill="#4e4e4e" stroke="#4e4e4e" stroke-width="1.51"/><path d="M1575,451L1572,-129L1572,111Z" fill="#535353" stroke="#535353" stroke-width="1.51"/></svg>